<svg width="141" height="83" viewBox="0 0 141 83" fill="none" xmlns="http://www.w3.org/2000/svg">
<g clip-path="url(#clip0_572_1559)">
<path d="M40.1626 29.9043C40.1626 31.5987 40.3463 32.9726 40.6677 33.9801C41.0351 34.9876 41.4943 36.0867 42.1371 37.2773C42.3667 37.6437 42.4586 38.0101 42.4586 38.3306C42.4586 38.7886 42.1831 39.2465 41.5861 39.7045L38.6932 41.6279C38.2799 41.9027 37.8666 42.04 37.4993 42.04C37.0401 42.04 36.5809 41.8111 36.1217 41.3989C35.4788 40.712 34.9278 39.9793 34.4686 39.2465C34.0094 38.468 33.5502 37.5979 33.0451 36.5446C29.4634 40.7578 24.9633 42.8643 19.5448 42.8643C15.6876 42.8643 12.611 41.7653 10.3609 39.5671C8.11088 37.3689 6.96289 34.438 6.96289 30.7744C6.96289 26.8818 8.34047 23.7219 11.1416 21.3406C13.9426 18.9592 17.6621 17.7686 22.3918 17.7686C23.9531 17.7686 25.5602 17.9059 27.2593 18.1349C28.9583 18.3639 30.7032 18.7303 32.54 19.1424V15.7994C32.54 12.3189 31.8053 9.89177 30.3818 8.47212C28.9124 7.05247 26.4327 6.36554 22.8969 6.36554C21.2897 6.36554 19.6366 6.54872 17.9376 6.96088C16.2386 7.37303 14.5855 7.87678 12.9783 8.51792C12.2436 8.83848 11.6926 9.02166 11.3712 9.11325C11.0497 9.20484 10.8201 9.25064 10.6364 9.25064C9.99357 9.25064 9.67214 8.79269 9.67214 7.83099V5.58702C9.67214 4.8543 9.76397 4.30475 9.99357 3.98419C10.2232 3.66362 10.6364 3.34305 11.2793 3.02249C12.8865 2.19817 14.8151 1.51124 17.0652 0.9617C19.3152 0.366362 21.703 0.0915905 24.2286 0.0915905C29.693 0.0915905 33.688 1.32806 36.2595 3.80101C38.785 6.27395 40.0708 10.0292 40.0708 15.0666V29.9043H40.1626ZM21.5193 36.8652C23.0347 36.8652 24.5959 36.5904 26.249 36.0409C27.9021 35.4913 29.3716 34.4838 30.6114 33.11C31.3461 32.2399 31.8971 31.2782 32.1726 30.1791C32.4482 29.08 32.6318 27.7519 32.6318 26.1949V24.2715C31.3002 23.9509 29.8767 23.6761 28.4072 23.493C26.9378 23.3098 25.5143 23.2182 24.0908 23.2182C21.0142 23.2182 18.7642 23.8135 17.2488 25.05C15.7335 26.2865 14.9988 28.0267 14.9988 30.3165C14.9988 32.4688 15.5498 34.0717 16.6978 35.1707C17.7999 36.3156 19.407 36.8652 21.5193 36.8652ZM58.3926 41.8111C57.5661 41.8111 57.015 41.6737 56.6477 41.3531C56.2803 41.0783 55.9589 40.4372 55.6834 39.5671L44.8923 4.16737C44.6168 3.25146 44.479 2.65612 44.479 2.33556C44.479 1.60283 44.8464 1.19068 45.5811 1.19068H50.0812C50.9537 1.19068 51.5506 1.32806 51.8721 1.64863C52.2394 1.9234 52.5149 2.56453 52.7905 3.43464L60.5049 33.7511L67.6683 3.43464C67.8979 2.51874 68.1734 1.9234 68.5408 1.64863C68.9082 1.37386 69.551 1.19068 70.3776 1.19068H74.0511C74.9236 1.19068 75.5206 1.32806 75.8879 1.64863C76.2553 1.9234 76.5767 2.56453 76.7604 3.43464L84.0156 34.1175L91.9597 3.43464C92.2352 2.51874 92.5566 1.9234 92.8781 1.64863C93.2454 1.37386 93.8424 1.19068 94.6689 1.19068H98.9394C99.6742 1.19068 100.087 1.55704 100.087 2.33556C100.087 2.56453 100.042 2.79351 99.9956 3.06828C99.9497 3.34305 99.8578 3.70941 99.6742 4.21316L88.6076 39.6129C88.3321 40.5288 88.0106 41.1241 87.6433 41.3989C87.2759 41.6737 86.679 41.8569 85.8983 41.8569H81.9493C81.0768 41.8569 80.4798 41.7195 80.1125 41.3989C79.7451 41.0783 79.4237 40.483 79.24 39.5671L72.1225 10.0292L65.0509 39.5213C64.8213 40.4372 64.5458 41.0325 64.1785 41.3531C63.8111 41.6737 63.1682 41.8111 62.3417 41.8111H58.3926ZM117.399 43.0475C115.011 43.0475 112.623 42.7728 110.327 42.2232C108.031 41.6737 106.241 41.0783 105.047 40.3914C104.312 39.9793 103.807 39.5213 103.623 39.1091C103.44 38.697 103.348 38.239 103.348 37.8269V35.4913C103.348 34.5296 103.715 34.0717 104.404 34.0717C104.679 34.0717 104.955 34.1175 105.23 34.2091C105.506 34.3006 105.919 34.4838 106.378 34.667C107.94 35.3539 109.639 35.9035 111.43 36.2698C113.266 36.6362 115.057 36.8194 116.894 36.8194C119.787 36.8194 122.037 36.3156 123.598 35.3081C125.159 34.3006 125.986 32.8352 125.986 30.9576C125.986 29.6753 125.573 28.622 124.746 27.7519C123.92 26.8818 122.358 26.1033 120.108 25.3706L113.45 23.3098C110.098 22.2565 107.618 20.6995 106.103 18.6387C104.588 16.6237 103.807 14.3797 103.807 11.9984C103.807 10.075 104.22 8.38053 105.047 6.91508C105.873 5.44963 106.975 4.16737 108.353 3.15987C109.731 2.10658 111.292 1.32806 113.129 0.778519C114.965 0.228976 116.894 0 118.914 0C119.925 0 120.981 0.0457952 121.991 0.183181C123.047 0.320567 124.011 0.503748 124.976 0.686929C125.894 0.915905 126.767 1.14488 127.593 1.41965C128.42 1.69442 129.063 1.9692 129.522 2.24397C130.165 2.61033 130.624 2.97669 130.899 3.38885C131.175 3.75521 131.313 4.25896 131.313 4.90009V7.05247C131.313 8.01417 130.945 8.51792 130.256 8.51792C129.889 8.51792 129.292 8.33473 128.512 7.96837C125.894 6.7777 122.955 6.18236 119.695 6.18236C117.078 6.18236 115.011 6.59452 113.588 7.46462C112.164 8.33473 111.43 9.6628 111.43 11.5404C111.43 12.8227 111.889 13.9218 112.807 14.7919C113.725 15.662 115.425 16.5321 117.858 17.3106L124.379 19.3714C127.685 20.4247 130.073 21.8901 131.496 23.7677C132.92 25.6453 133.609 27.7977 133.609 30.1791C133.609 32.1483 133.195 33.9343 132.415 35.4913C131.588 37.0484 130.486 38.4222 129.063 39.5213C127.639 40.6662 125.94 41.4905 123.966 42.0858C121.899 42.727 119.741 43.0475 117.399 43.0475Z" fill="#252F3E"/>
<path fill-rule="evenodd" clip-rule="evenodd" d="M126.078 65.3041C110.97 76.4323 89.0206 82.3399 70.1477 82.3399C43.6981 82.3399 19.866 72.5855 1.86556 56.374C0.442059 55.0917 1.7278 53.3515 3.42682 54.359C22.8966 65.6246 46.9125 72.4481 71.7549 72.4481C88.5155 72.4481 106.929 68.9677 123.873 61.8236C126.399 60.6787 128.557 63.4723 126.078 65.3041Z" fill="#FF9900"/>
<path fill-rule="evenodd" clip-rule="evenodd" d="M132.368 58.1601C130.44 55.6871 119.603 56.9694 114.689 57.5647C113.22 57.7479 112.99 56.4656 114.322 55.5039C122.955 49.459 137.144 51.1992 138.797 53.2142C140.45 55.2749 138.338 69.4257 130.256 76.2034C129.016 77.2567 127.822 76.7071 128.373 75.3333C130.21 70.7995 134.297 60.5872 132.368 58.1601Z" fill="#FF9900"/>
</g>
<defs>
<clipPath id="clip0_572_1559">
<rect width="140.893" height="82.5631" fill="white"/>
</clipPath>
</defs>
</svg>
