<svg width="169" height="39" viewBox="0 0 169 39" fill="none" xmlns="http://www.w3.org/2000/svg">
<g clip-path="url(#clip0_572_1644)">
<path d="M36.9614 8.73608C36.9749 8.78748 36.9817 8.84045 36.9816 8.89363V17.1495C36.9817 17.2555 36.954 17.3596 36.9015 17.4514C36.849 17.5432 36.7734 17.6193 36.6824 17.6722L29.8224 21.6611V29.5684C29.8225 29.6742 29.795 29.7782 29.7429 29.8699C29.6907 29.9616 29.6156 30.0379 29.5251 30.0911L15.2103 38.4174C15.1768 38.4353 15.1418 38.4502 15.1057 38.4619C15.0929 38.4619 15.08 38.4748 15.0653 38.4785C14.9655 38.505 14.8606 38.505 14.7607 38.4785C14.7442 38.4785 14.7295 38.4656 14.713 38.4582C14.6788 38.4475 14.6457 38.4338 14.6139 38.4174L0.299142 30.0911C0.208153 30.0383 0.132581 29.9621 0.0800573 29.8703C0.0275336 29.7786 -8.17181e-05 29.6744 1.8164e-07 29.5684V4.80835C-3.90013e-05 4.75517 0.00674668 4.70221 0.0201876 4.6508C0.0201876 4.63412 0.0348694 4.61743 0.0403751 4.60075C0.050602 4.56881 0.0634949 4.53781 0.0789148 4.50807C0.0912834 4.48935 0.104767 4.4714 0.11929 4.45432C0.135326 4.42958 0.153113 4.40604 0.172511 4.38388C0.19114 4.36782 0.210755 4.35296 0.231238 4.3394C0.251743 4.32021 0.273848 4.30285 0.297306 4.2875L7.45468 0.124368C7.54541 0.0716757 7.64824 0.0439453 7.7529 0.0439453C7.85756 0.0439453 7.96039 0.0716757 8.05112 0.124368L15.2085 4.2875C15.2315 4.30351 15.2535 4.32084 15.2746 4.3394C15.2949 4.35319 15.3145 4.36803 15.3333 4.38388C15.3525 4.40621 15.3703 4.42974 15.3865 4.45432C15.401 4.4714 15.4145 4.48935 15.4269 4.50807C15.4422 4.53788 15.4551 4.56887 15.4654 4.60075C15.4654 4.61743 15.4819 4.63412 15.4856 4.65265C15.4991 4.70405 15.5059 4.75702 15.5058 4.81021V20.2801L21.4721 16.8103V8.88622C21.4721 8.83365 21.4789 8.78132 21.4923 8.73052C21.4923 8.71198 21.507 8.69715 21.5125 8.67862C21.523 8.6468 21.5359 8.61583 21.551 8.58594C21.562 8.56555 21.5786 8.55072 21.5914 8.53218C21.6075 8.50745 21.6252 8.48391 21.6446 8.46175C21.6632 8.44567 21.6829 8.43081 21.7034 8.41726C21.7242 8.39844 21.7462 8.38109 21.7694 8.36536L28.9268 4.20223C29.0175 4.14936 29.1203 4.12153 29.225 4.12153C29.3297 4.12153 29.4326 4.14936 29.5232 4.20223L36.6806 8.36536C36.7043 8.38117 36.727 8.3985 36.7485 8.41726C36.7669 8.43209 36.7889 8.44507 36.8054 8.46175C36.8246 8.48408 36.8424 8.5076 36.8586 8.53218C36.8734 8.54907 36.8869 8.56703 36.899 8.58594C36.9144 8.61568 36.9273 8.64668 36.9375 8.67862C36.9469 8.69716 36.9548 8.71637 36.9614 8.73608ZM35.7887 16.801V9.94276L33.2836 11.3997L29.8224 13.4126V20.2709L35.7905 16.801H35.7887ZM28.6313 29.2199V22.3506L25.227 24.3135L15.5003 29.9169V36.8511L28.6313 29.2199ZM1.18372 5.84265V29.2199L14.3092 36.8511V29.9187L7.45284 25.9984C7.41255 25.9674 7.37217 25.9365 7.33172 25.9057C7.31376 25.8859 7.2972 25.8649 7.28217 25.8427C7.26637 25.8238 7.25166 25.804 7.23812 25.7834C7.22559 25.759 7.21515 25.7336 7.20692 25.7074C7.19588 25.6854 7.18667 25.6624 7.17939 25.6388C7.17353 25.6101 7.16985 25.581 7.16838 25.5517C7.1669 25.5289 7.1669 25.506 7.16838 25.4831V9.31254L3.70715 7.29956L1.20207 5.8445L1.18372 5.84265ZM7.74648 1.3329L1.78567 4.80835L7.75015 8.27639L13.7146 4.80835L7.75015 1.34031L7.74648 1.3329ZM10.8498 22.9734L14.3111 20.9623V5.84265L11.806 7.29956L8.34292 9.31254V24.434L10.8498 22.9734ZM29.2259 5.42374L23.2578 8.88622L29.2223 12.3543L35.1867 8.88622L29.2259 5.42374ZM28.6295 13.3941L25.1682 11.3811L22.6632 9.92422V16.7824L26.1244 18.7936L28.6313 20.2505L28.6295 13.3941ZM14.9057 28.8641L23.6542 23.8205L28.0294 21.3052L22.0704 17.839L15.2085 21.8297L8.94304 25.472L14.9057 28.8641Z" fill="#FF2D20"/>
</g>
<g clip-path="url(#clip1_572_1644)">
<path d="M49.7144 7.54736V32.7287H58.811V37.0658H44.8716V7.54736H49.7144ZM75.8916 20.067V17.4123H80.4945V37.0767H75.9134V34.4111C75.2808 35.3943 74.4083 36.1591 73.2739 36.7053C72.1396 37.2843 70.9834 37.5574 69.8381 37.5574C68.3439 37.5574 66.9805 37.2843 65.7479 36.7381C64.5432 36.2151 63.459 35.449 62.563 34.4876C61.6748 33.5337 60.972 32.4222 60.4907 31.2102C59.995 29.9438 59.747 28.5938 59.7599 27.2336C59.7599 25.8571 60.0108 24.5352 60.5016 23.3007C60.9771 22.0727 61.6803 20.9459 62.5739 19.9796C63.4617 19.0131 64.5383 18.2396 65.737 17.7073C66.9805 17.1611 68.3548 16.888 69.8272 16.888C70.9725 16.888 72.1177 17.172 73.2521 17.7292C74.3864 18.2972 75.259 19.062 75.8698 20.0452L75.8916 20.067ZM75.4772 29.648C75.7645 28.8793 75.9123 28.0653 75.9134 27.2445C75.9134 26.3924 75.7607 25.6058 75.4772 24.8411C75.216 24.1053 74.8161 23.4266 74.2992 22.8419C73.7834 22.2794 73.1604 21.8262 72.4668 21.5091C71.721 21.1664 70.9095 20.9911 70.089 20.9956C69.2164 20.9956 68.4311 21.1813 67.733 21.52C67.0492 21.8382 66.4341 22.2872 65.9225 22.8419C65.4069 23.4237 65.0137 24.1037 64.7663 24.8411C64.4958 25.6133 64.3593 26.4262 64.3627 27.2445C64.3627 28.0857 64.4936 28.8832 64.7663 29.648C65.0281 30.4127 65.4207 31.0682 65.9225 31.6144C66.4297 32.1852 67.0452 32.6494 67.733 32.98C68.4311 33.3077 69.2164 33.4825 70.089 33.4825C70.9616 33.4825 71.7578 33.3187 72.4668 32.98C73.1624 32.6567 73.7857 32.1959 74.2992 31.6253C74.8125 31.0504 75.2122 30.3831 75.4772 29.6589V29.648ZM84.1156 37.0767V17.4123H96.5717V21.9352H88.6967V37.0658H84.1156V37.0767ZM113.205 20.067V17.4123H117.786V37.0767H113.205V34.4111C112.594 35.3943 111.711 36.1591 110.587 36.7053C109.442 37.2843 108.297 37.5574 107.141 37.5574C105.646 37.5574 104.283 37.2843 103.051 36.7381C101.846 36.2151 100.762 35.449 99.8656 34.4876C98.9774 33.5337 98.2746 32.4222 97.7933 31.2102C97.3014 29.943 97.057 28.5931 97.0734 27.2336C97.0734 25.8571 97.3133 24.5352 97.8042 23.3007C98.2797 22.0727 98.9828 20.9459 99.8765 19.9796C100.764 19.0131 101.841 18.2396 103.04 17.7073C104.283 17.1611 105.657 16.888 107.13 16.888C108.275 16.888 109.42 17.172 110.555 17.7292C111.689 18.2972 112.573 19.062 113.172 20.0452L113.205 20.067ZM112.791 29.648C113.071 28.8779 113.211 28.064 113.205 27.2445C113.205 26.3924 113.063 25.6058 112.791 24.8411C112.533 24.1061 112.137 23.4275 111.624 22.8419C111.101 22.2771 110.471 21.8237 109.769 21.5091C109.06 21.1813 108.264 20.9956 107.402 20.9956C106.53 20.9956 105.745 21.1813 105.036 21.52C104.352 21.8382 103.737 22.2872 103.225 22.8419C102.709 23.4237 102.316 24.1037 102.069 24.8411C101.802 25.614 101.669 26.4268 101.676 27.2445C101.676 28.0857 101.807 28.8832 102.069 29.648C102.342 30.4127 102.723 31.0682 103.225 31.6144C103.732 32.1852 104.348 32.6494 105.036 32.98C105.745 33.3077 106.53 33.4825 107.402 33.4825C108.275 33.4825 109.06 33.3187 109.78 32.98C110.484 32.6592 111.115 32.1983 111.634 31.6253C112.144 31.0495 112.54 30.3823 112.802 29.6589L112.791 29.648ZM136.197 17.4123H140.855L133.329 37.0767H127.548L120.022 17.4123H124.658L130.438 32.4665L136.197 17.4233V17.4123ZM150.857 16.9098C157.107 16.9098 161.371 22.4595 160.564 28.9488H145.327C145.327 30.6312 147.05 33.9086 151.108 33.9086C154.598 33.9086 156.943 30.8497 156.943 30.8497L160.041 33.2531C157.259 36.2028 154.991 37.5684 151.424 37.5684C145.076 37.5684 140.778 33.5262 140.778 27.2227C140.778 21.5091 145.229 16.888 150.846 16.888L150.857 16.9098ZM145.349 25.5403H156.365C156.321 25.1579 155.71 20.5586 150.824 20.5586C145.916 20.5586 145.392 25.1689 145.349 25.5403ZM163.564 37.044V7.54736H168.145V37.0658H163.564V37.044Z" fill="#FF2D20"/>
</g>
<defs>
<clipPath id="clip0_572_1644">
<rect width="37.1668" height="38.3321" fill="white"/>
</clipPath>
<clipPath id="clip1_572_1644">
<rect width="123.372" height="30.7936" fill="white" transform="translate(44.8716 7.53857)"/>
</clipPath>
</defs>
</svg>
