<svg width="105" height="105" viewBox="0 0 105 105" fill="none" xmlns="http://www.w3.org/2000/svg">
<path d="M52.8433 8.20361L54.8234 11.9225C55.2685 12.6089 55.7511 13.2162 56.3168 13.782C57.9807 15.4251 59.5324 17.1805 60.9592 19.0358C64.312 23.4369 66.575 28.3289 68.189 33.6202C69.1582 36.8482 69.6823 40.1678 69.7239 43.5164C69.8862 53.5375 66.4502 62.14 59.5282 69.2908C58.405 70.4222 57.1862 71.4664 55.8883 72.3982C55.202 72.3982 54.8775 71.874 54.5946 71.3873C54.0788 70.4888 53.7377 69.5029 53.5838 68.4796C53.3384 67.2649 53.1803 66.0544 53.2593 64.8065V64.2407C53.2052 64.1118 52.6021 8.49064 52.8433 8.20361Z" fill="#599636"/>
<path d="M52.8436 8.08311C52.7645 7.92087 52.6813 8.04151 52.5981 8.12471C52.6397 8.93587 52.3527 9.65968 51.9118 10.3502C51.4251 11.0366 50.7803 11.5649 50.1313 12.1306C46.5414 15.238 43.7127 18.9985 41.4498 23.1999C38.4339 28.8532 36.8823 34.914 36.4455 41.2994C36.2458 43.5998 37.1735 51.7198 37.9014 54.0617C39.8815 60.2849 43.434 65.4971 48.0431 70.0189C49.1746 71.1087 50.3851 72.1196 51.633 73.093C51.9991 73.093 52.0365 72.7685 52.1197 72.5272C52.282 72.0114 52.4026 71.4873 52.4858 70.9548L53.297 64.8981L52.8436 8.08311Z" fill="#6CAC48"/>
<path d="M54.8237 74.8526C54.9027 73.925 55.3478 73.1595 55.8345 72.39C55.3478 72.1903 54.9859 71.7868 54.703 71.3417C54.4576 70.9174 54.2579 70.4723 54.0998 70.0064C53.5341 68.3133 53.4135 66.5288 53.2512 64.7983V63.75C53.0516 63.9122 53.0058 65.285 53.0058 65.4888C52.8893 67.3233 52.6439 69.1411 52.2778 70.9424C52.1572 71.6703 52.0782 72.3983 51.6289 73.0431C51.6289 73.1221 51.6289 73.2053 51.6705 73.3259C52.3985 75.4683 52.5981 77.648 52.7188 79.8735V80.6847C52.7188 81.6539 52.6772 81.4501 53.4842 81.7746C53.8087 81.8952 54.1706 81.9368 54.495 82.1781C54.7405 82.1781 54.7779 81.9784 54.7779 81.812L54.6573 80.4767V76.7578C54.6198 76.1089 54.7405 75.4641 54.8237 74.8526Z" fill="#C2BFBF"/>
<path d="M20.3858 92.8997V94.6965C20.3858 94.7687 20.3858 94.8409 20.3986 94.9089C20.4198 95.1213 20.5515 95.2529 20.7426 95.3124C20.921 95.3591 21.1037 95.3931 21.2863 95.4186C21.3925 95.4314 21.4265 95.4781 21.4392 95.5928C21.452 95.9963 21.418 96.043 21.0272 96.0175C20.1182 95.9708 19.2049 95.958 18.2959 96.0175H18.211C17.9264 96.0303 17.9052 96.0048 17.9052 95.7202C17.9052 95.6735 17.9179 95.614 17.9179 95.5673C17.9179 95.4823 17.9774 95.4356 18.0581 95.4356C18.2492 95.4144 18.4233 95.3634 18.6018 95.3294C18.8481 95.2699 18.9925 95.117 19.0138 94.8664C19.0478 94.5946 19.0478 94.3099 19.0478 94.0381L19.0605 90.8693C19.069 90.6824 18.9671 90.5082 18.8014 90.419C18.589 90.3001 18.3596 90.2067 18.126 90.1345C18.0538 90.1133 17.9858 90.1005 17.9264 90.0623C17.7522 89.9773 17.748 89.8244 17.9136 89.7309C17.9731 89.6969 18.0453 89.6714 18.1133 89.6587C18.8302 89.5526 19.5346 89.3747 20.2159 89.1278C20.3561 89.081 20.3943 89.0938 20.407 89.234C20.4198 89.3189 20.407 89.4251 20.3943 89.5058C20.3731 89.6587 20.3731 89.8116 20.3731 89.9561C20.3731 90.0155 20.3858 90.075 20.4453 90.109C20.5048 90.1429 20.5642 90.109 20.6194 90.075C20.8658 89.8838 21.1164 89.7097 21.3883 89.5568C21.779 89.3444 22.1911 89.1533 22.6413 89.0938C23.185 89.0216 23.6565 89.166 24.0728 89.5185C24.2427 89.6714 24.3956 89.8456 24.5231 90.0368C24.642 90.2109 24.6547 90.2152 24.8077 90.0962C25.2579 89.7649 25.7294 89.4719 26.2391 89.2552C26.7701 89.03 27.3138 88.9961 27.8575 89.183C28.414 89.3826 28.792 89.7734 29.0172 90.3044C29.2083 90.7291 29.289 91.1709 29.289 91.6297V94.7984C29.289 95.0108 29.3739 95.1425 29.5863 95.2487C29.8115 95.3336 30.0578 95.3804 30.2957 95.4271C30.4486 95.4611 30.4486 95.4611 30.4486 95.6183C30.4274 96.009 30.3891 96.0303 30.0111 96.009C29.0633 95.9538 28.113 95.9538 27.1652 96.009C26.974 96.0218 26.974 96.0218 26.9655 95.8306V95.7711C26.9528 95.4526 26.9528 95.4526 27.2628 95.3804L27.5687 95.2954C27.7811 95.2445 27.934 95.0533 27.934 94.8324L27.968 93.9446L27.9467 91.6297C27.9382 91.4215 27.8957 91.2176 27.815 91.0265C27.5177 90.3044 26.8678 90.0452 26.2434 90.1175C25.7719 90.1642 25.3556 90.3554 24.9648 90.6272C24.8799 90.6867 24.8246 90.7589 24.8332 90.8736C24.9394 91.6296 24.8671 92.3857 24.8799 93.1418V94.7857C24.8799 95.0831 24.9988 95.2232 25.2834 95.2954L25.8271 95.4144C25.912 95.4271 25.9588 95.4611 25.9588 95.5546V95.6395C25.946 95.9708 25.9248 95.9835 25.5935 95.9835C24.6463 95.9368 23.7033 95.9496 22.7687 95.9835C22.4502 95.9963 22.4247 95.9623 22.4374 95.6395C22.4502 95.4483 22.4714 95.4398 22.6498 95.4016L23.0406 95.3294C23.3847 95.2572 23.5121 95.1297 23.5376 94.7602L23.5716 93.9659L23.5503 91.5915C23.5291 91.2941 23.4654 91.0137 23.304 90.7419C23.0661 90.3044 22.6965 90.0792 22.1911 90.058C21.6813 90.024 21.2354 90.2109 20.8063 90.4488C20.509 90.623 20.3816 90.8268 20.4028 91.1709V92.8955L20.3858 92.8997ZM42.6565 92.9719V94.637C42.6565 94.756 42.665 94.8749 42.6778 94.9896C42.6862 95.151 42.8052 95.2869 42.9624 95.3209C43.1662 95.3804 43.3744 95.4143 43.5868 95.4271C43.7057 95.4398 43.7269 95.4866 43.7397 95.58V95.665C43.7269 96.077 43.6802 96.128 43.2767 96.1025C42.3762 96.043 41.4799 96.0558 40.5836 96.1025L40.2396 96.1152C40.1674 96.1152 40.1546 96.0813 40.1334 96.0303C40.0994 95.8664 40.0994 95.6972 40.1334 95.5333C40.1461 95.4611 40.1929 95.4483 40.2651 95.4271C40.4392 95.4059 40.5837 95.3676 40.7493 95.3421C41.0466 95.27 41.1528 95.151 41.1613 94.8452L41.1953 93.8512V90.9415C41.1953 90.7291 41.1104 90.5975 40.9235 90.504C40.7111 90.3851 40.4859 90.3044 40.2481 90.2194C40.1759 90.1982 40.1079 90.1727 40.0484 90.1345C39.8955 90.0283 39.8743 89.8753 40.0272 89.7564C40.0952 89.7012 40.1759 89.6672 40.2651 89.663C41.0211 89.544 41.756 89.3784 42.4654 89.0938C42.5503 89.0598 42.5843 89.081 42.6183 89.1533C42.6522 89.2255 42.665 89.3062 42.6523 89.3911L42.6183 89.9476C42.6183 90.0198 42.5843 90.1217 42.6395 90.1472C42.7117 90.1939 42.7585 90.0877 42.8179 90.0623C43.1663 89.7691 43.5519 89.5234 43.9648 89.3316C44.3301 89.1575 44.7082 89.0471 45.1329 89.0726C45.9273 89.1193 46.4922 89.5228 46.8575 90.2194C47.0487 90.5847 47.1294 90.9882 47.1633 91.4003L47.1973 92.2668L47.2101 94.8792C47.2228 95.0788 47.295 95.2105 47.4947 95.2827C47.7026 95.3506 47.9157 95.4017 48.1318 95.4356C48.3229 95.4568 48.3315 95.4951 48.3442 95.6735V95.733C48.323 96.1365 48.2975 96.145 47.8939 96.1237C47.0124 96.077 46.1291 96.077 45.2476 96.1237C45.1286 96.1365 45.0098 96.1237 44.9036 96.1365C44.8313 96.1365 44.7846 96.1237 44.7719 96.0515C44.7506 95.8986 44.7251 95.7457 44.7591 95.58C44.7719 95.5078 44.8058 95.4738 44.8908 95.4611L45.4345 95.3761C45.6257 95.3294 45.7319 95.202 45.7531 95.0321L45.7743 94.7008L45.7616 92.2286C45.7616 91.944 45.7488 91.6594 45.6894 91.3791C45.5492 90.7716 45.0862 90.3426 44.4618 90.2789C43.9181 90.2194 43.4254 90.3638 42.9709 90.6569C42.7457 90.7971 42.6523 91.001 42.6523 91.2474V93.0314C42.6523 92.9974 42.6523 92.9974 42.665 92.9974L42.6565 92.9719Z" fill="#47474A"/>
<path d="M77.2709 89.6293C77.1392 88.767 76.8206 87.9982 76.2642 87.3227C75.7799 86.7281 75.1555 86.2651 74.4419 85.9762C73.6986 85.6704 72.9042 85.5727 72.1014 85.5515C71.7701 85.5387 67.2548 85.6109 66.9235 85.5515C66.8385 85.5387 66.7833 85.5642 66.7323 85.6364C66.6729 85.7214 66.6134 85.8148 66.5794 85.9083C66.4392 86.2268 66.4392 86.2056 66.7791 86.2523C67.0636 86.2991 67.3355 86.3246 67.6074 86.4053C67.8537 86.4902 68.0321 86.6304 68.0916 86.9022C68.1128 87.0339 68.1383 91.1924 68.1383 93.1294L68.0916 94.5141C68.0788 94.6203 68.0703 94.7265 68.0321 94.82C67.9854 94.9602 67.9004 95.0791 67.7603 95.1385C67.6031 95.2107 67.4375 95.2575 67.2633 95.2702C66.9447 95.3042 66.898 95.3169 66.7918 95.6737L66.7578 95.8054C66.7366 95.9584 66.7451 95.9838 66.898 95.9838L70.432 96.0178L71.8169 95.9966L72.7725 95.8776C73.86 95.678 74.8285 95.2277 75.6568 94.5056C76.1282 94.0893 76.5148 93.5839 76.7909 93.0147C77.1222 92.352 77.2624 91.6299 77.3006 90.8993C77.3643 90.4788 77.3431 90.0541 77.2709 89.6293ZM75.559 91.3071C75.5123 92.0632 75.3594 92.798 74.9686 93.4565C74.4716 94.3187 73.7623 94.9219 72.7811 95.1343C72.3563 95.2192 71.9315 95.266 71.4855 95.2065C71.1669 95.1725 70.8611 95.1343 70.5638 95.0281C70.0328 94.8369 69.8416 94.5099 69.8332 93.9917L69.8204 86.864C69.8204 86.4392 70.0115 86.3458 70.3174 86.333C70.7804 86.2991 71.2519 86.3118 71.7106 86.3543C72.2034 86.401 72.6834 86.5199 73.1421 86.6984C73.482 86.8385 73.7962 87.0339 74.0766 87.276C74.7138 87.8197 75.1385 88.5036 75.3721 89.3064C75.5633 89.9563 75.5973 90.619 75.5633 91.2816L75.559 91.3071ZM87.0958 92.4667C87.0958 92.3945 87.0958 92.3351 87.0831 92.2671C86.9769 91.6172 86.6328 91.1202 86.1019 90.7422C85.7578 90.4958 85.3713 90.3301 84.9677 90.2112C84.8955 90.19 84.8361 90.1645 84.768 90.1517C84.7808 90.0922 84.8148 90.0795 84.853 90.0668C85.0909 89.9478 85.316 89.8204 85.5157 89.642C85.881 89.3362 86.1231 88.9581 86.2463 88.4952C86.3185 88.2488 86.3185 87.9981 86.293 87.739C86.2548 87.1231 85.9362 86.5582 85.4307 86.2014C84.887 85.7978 84.2499 85.6322 83.5872 85.6237C82.3087 85.6025 81.0216 85.6237 79.7473 85.6237C79.382 85.6237 79.0167 85.6449 78.6344 85.5897C78.5622 85.577 78.4602 85.5557 78.4093 85.6364C78.3243 85.7894 78.2181 85.9423 78.1842 86.1206C78.1714 86.2056 78.1969 86.2523 78.2903 86.2608L79.1059 86.3798C79.4244 86.4265 79.6496 86.6049 79.6751 86.8895C79.6963 87.0849 79.7091 87.2845 79.7091 87.4799L79.6878 89.6887L79.6751 94.0596C79.6751 94.3187 79.6411 94.5693 79.5901 94.8285C79.5646 94.9984 79.4457 95.1343 79.2843 95.181C79.0464 95.2532 78.8213 95.3212 78.5749 95.3212C78.439 95.3085 78.3116 95.3934 78.2691 95.5209C78.2224 95.627 78.1841 95.746 78.1629 95.8522C78.1417 95.9923 78.1756 96.0433 78.3158 96.0263C78.422 96.0136 82.3214 96.1113 83.0563 96.0391C83.4938 95.9923 83.9228 95.9329 84.3561 95.8012C85.0994 95.5633 85.7875 95.2235 86.3312 94.6416C86.7815 94.17 87.0406 93.6009 87.0619 92.9382C87.0958 92.7853 87.0958 92.6324 87.0958 92.4667ZM81.3614 87.6201L81.3954 86.6729C81.3954 86.4944 81.4676 86.4137 81.6418 86.3755C81.9264 86.316 82.211 86.3415 82.4913 86.3543C82.7759 86.3755 83.0477 86.4138 83.3324 86.4945C83.8506 86.6474 84.2541 86.9447 84.492 87.4417C84.5982 87.6668 84.6576 87.9132 84.6576 88.1638C84.6704 88.4951 84.6449 88.8137 84.5175 89.1323C84.3178 89.5698 83.9992 89.8544 83.5362 89.9351C83.0732 90.0201 81.765 89.9818 81.5611 89.9818C81.3826 89.9818 81.3699 89.9606 81.3699 89.7822V88.6693C81.3402 88.3252 81.3402 87.9769 81.3572 87.6286L81.3614 87.6201ZM85.2014 93.9789C85.0017 94.5099 84.6321 94.8794 84.114 95.0791C83.8293 95.1852 83.5447 95.2532 83.2474 95.232C82.8821 95.2192 82.5168 95.232 82.1472 95.1598C81.6502 95.0536 81.4251 94.5821 81.3911 94.238C81.3316 93.6348 81.3699 93.0189 81.3572 92.5729V91.014C81.3572 90.8229 81.3784 90.7676 81.5823 90.7676L82.6952 90.7804L83.4513 90.8653C83.9823 90.9843 84.4665 91.1839 84.8445 91.5959C85.1504 91.9273 85.316 92.3266 85.3542 92.7641C85.3882 93.1761 85.367 93.5796 85.2141 93.9704L85.2014 93.9789Z" fill="#C2BFBF"/>
<path d="M55.1698 90.4192L55.4757 90.4659C55.8069 90.4787 56.1978 90.3598 56.3167 89.8967C56.3804 89.6761 56.3804 89.442 56.3167 89.2214C56.2445 89.2214 56.2105 89.2809 56.1765 89.3063C55.9981 89.4465 55.7985 89.5314 55.5861 89.5527C55.1613 89.5994 54.7365 89.5739 54.3203 89.421L53.7426 89.2213C53.3391 89.0897 52.9143 89.0345 52.4895 89.0557C51.8863 89.1024 51.3214 89.3021 50.7862 89.5866C50.217 89.8925 49.8177 90.3555 49.6266 90.9799C49.5204 91.3452 49.5076 91.7233 49.5543 92.1013C49.6733 92.9636 50.1235 93.5667 50.9263 93.8853C50.9731 93.8981 51.0113 93.9193 51.058 93.932C51.1642 93.9915 51.177 94.051 51.0793 94.1317L50.7819 94.3314L50.0726 94.7688C49.8942 94.875 49.8729 94.96 49.9324 95.1469C50.0046 95.3678 50.1321 95.5632 50.3104 95.7161C50.4718 95.8563 50.6545 95.9667 50.8541 96.0474C50.9858 96.1069 50.9858 96.1323 50.8669 96.2385L50.1915 96.7228C49.9664 96.897 49.7412 97.0669 49.5543 97.292C49.4229 97.4317 49.3281 97.6018 49.2784 97.7871C49.2288 97.9724 49.2258 98.1672 49.2697 98.3539C49.3589 98.7659 49.5713 99.1355 49.8857 99.4158C50.1924 99.7014 50.5665 99.9045 50.9731 100.006C51.6357 100.197 52.3196 100.206 52.995 100.078C53.9635 99.9001 54.813 99.4711 55.4757 98.7447C55.9386 98.2605 56.2062 97.6913 56.2317 97.0159C56.2869 96.2046 55.7433 95.4782 54.9532 95.2913L54.316 95.1724L52.3663 94.9982C52.1539 94.9855 51.9416 94.9515 51.7631 94.8453C51.538 94.7051 51.4786 94.4333 51.6229 94.2549C51.7292 94.1232 51.8609 94.0425 52.0265 94.0298L52.4045 93.9958C53.1517 93.9198 53.8531 93.6004 54.401 93.0868C54.6935 92.8153 54.9028 92.4661 55.0041 92.0801C55.1443 91.5703 55.1443 91.0436 55.0254 90.5254C54.9914 90.3937 55.0041 90.3852 55.1655 90.4064L55.1698 90.4192ZM52.2729 96.3065C52.3451 96.3193 52.4131 96.3065 52.4853 96.3065C52.9823 96.3277 53.492 96.366 53.9762 96.4977C54.1334 96.5444 54.2905 96.6039 54.4392 96.6761C54.9107 96.9352 55.0891 97.3855 55.0296 97.8697C54.9574 98.4006 54.6643 98.7787 54.2013 99.0293C53.8955 99.2035 53.5514 99.2757 53.1947 99.3139C53.063 99.3266 52.9483 99.3139 52.8166 99.3139C52.4045 99.3266 52.001 99.2799 51.6102 99.1142C51.3384 99.008 51.1132 98.8551 50.9136 98.6428C50.5016 98.2307 50.3062 97.4747 50.9263 96.8587C51.3044 96.5062 51.7292 96.2598 52.2729 96.3065ZM53.6237 92.6195C53.3773 93.2439 52.8293 93.4351 52.2898 93.3501C51.7929 93.2779 51.4276 93.0061 51.1897 92.5558C50.8839 91.9526 50.7989 91.3282 50.9773 90.6783C51.109 90.1941 51.4021 89.8288 51.9245 89.7438C52.5872 89.6249 53.2201 89.8628 53.5557 90.5254C53.7299 90.844 53.802 91.2348 53.802 91.7912C53.7893 92.0163 53.7425 92.3222 53.6237 92.6195ZM38.7312 91.8125C38.625 91.1753 38.3871 90.5934 37.9496 90.1091C37.2997 89.387 36.4714 89.0727 35.5369 89.0684C34.7214 89.0557 33.9525 89.2935 33.2686 89.7183C32.5932 90.1218 32.1005 90.7675 31.8839 91.5279C31.6842 92.2117 31.6927 92.9126 31.8499 93.6092C32.2619 95.4783 33.7062 96.281 35.4307 96.1621C35.9405 96.1281 36.4247 95.9625 36.8834 95.7373C37.5673 95.4188 38.0643 94.909 38.4084 94.2379C38.6802 93.6815 38.7991 93.091 38.7864 92.4156L38.7312 91.8125ZM37.0533 94.4376C36.8792 94.9812 36.4034 95.372 35.8343 95.4315C35.316 95.5037 34.8276 95.372 34.3943 95.0662C34.08 94.8326 33.8251 94.531 33.6509 94.1784C33.1667 93.1844 33.0817 92.148 33.3324 91.0819C33.4131 90.7505 33.5829 90.4532 33.8293 90.2195C34.2668 89.816 34.7766 89.7226 35.3415 89.8415C35.8852 89.9605 36.2972 90.2535 36.6371 90.7038C36.9769 91.1541 37.134 91.6723 37.2275 92.216C37.2742 92.4878 37.2742 92.7724 37.287 92.9466C37.287 93.5158 37.2402 93.983 37.0618 94.4376H37.0533ZM64.5572 91.9102C64.4723 91.2263 64.2132 90.5976 63.7289 90.0794C63.0918 89.3828 62.2635 89.0854 61.3417 89.0727C60.5474 89.0599 59.8168 89.2851 59.1414 89.6759C58.3853 90.1261 57.8629 90.7633 57.6632 91.6256C57.4253 92.5685 57.523 93.5625 57.9478 94.4376C58.3386 95.2658 59.0012 95.7968 59.8763 96.0347C60.8447 96.2938 61.7665 96.1749 62.667 95.7373C63.4486 95.3593 64.0008 94.7688 64.3236 93.9661C64.5148 93.4946 64.5827 92.9848 64.5955 92.3944C64.604 92.2882 64.5785 92.0971 64.5572 91.9102ZM62.9261 94.2846C62.735 94.9218 62.3357 95.338 61.6603 95.4315C61.1633 95.5037 60.6918 95.3848 60.267 95.1002C59.9018 94.8538 59.6426 94.5225 59.4515 94.1317C59.2391 93.7197 59.1202 93.2822 59.0735 92.8319C59.0012 92.2754 59.0012 91.7317 59.1329 91.1753C59.1584 91.0648 59.1924 90.9586 59.2391 90.8567C59.5704 90.0284 60.301 89.6504 61.1676 89.8415C61.7453 89.9732 62.1828 90.2918 62.5141 90.776C62.8327 91.2475 62.9856 91.77 63.0578 92.3307C63.0918 92.5558 63.1045 92.7937 63.0918 92.9933C63.0918 93.4563 63.0578 93.8811 62.9176 94.2931L62.9261 94.2846Z" fill="#47474A"/>
</svg>
