<svg width="138" height="85" viewBox="0 0 138 85" fill="none" xmlns="http://www.w3.org/2000/svg">
<path d="M68.1502 84.7548C67.6832 84.7548 67.2471 84.6297 66.8421 84.4107L62.6997 81.9392C62.0766 81.5949 62.3881 81.4698 62.5752 81.4073C63.416 81.1258 63.5718 81.063 64.4439 80.5627C64.5374 80.4999 64.6621 80.5313 64.7554 80.5938L67.9325 82.5023C68.057 82.5648 68.2127 82.5648 68.306 82.5023L80.7338 75.2751C80.8583 75.2126 80.9208 75.0873 80.9208 74.9311V60.5081C80.9208 60.3514 80.8583 60.2266 80.7338 60.1638L68.306 52.968C68.1815 52.9052 68.0257 52.9052 67.9325 52.968L55.5047 60.1638C55.3802 60.2263 55.3177 60.3828 55.3177 60.5079V74.9308C55.3177 75.0561 55.3802 75.2123 55.5047 75.2751L58.8998 77.2461C60.7375 78.1846 61.8898 77.0896 61.8898 75.9946V61.7593C61.8898 61.5717 62.0456 61.3839 62.2636 61.3839H63.852C64.0391 61.3839 64.2258 61.5403 64.2258 61.7593V75.9946C64.2258 78.4661 62.8864 79.9055 60.5505 79.9055C59.8341 79.9055 59.2736 79.9055 57.6849 79.1231L54.4146 77.2461C53.6047 76.777 53.1064 75.9007 53.1064 74.9622V60.5393C53.1064 59.6008 53.6047 58.7245 54.4146 58.2554L66.8421 51.0282C67.6209 50.5902 68.6801 50.5902 69.4586 51.0282L81.8861 58.2554C82.696 58.7245 83.1945 59.6008 83.1945 60.5393V74.9622C83.1945 75.9007 82.696 76.777 81.8861 77.2461L69.4586 84.4733C69.0536 84.6611 68.5863 84.7548 68.1502 84.7548ZM71.9814 74.8371C66.5308 74.8371 65.4095 72.3342 65.4095 70.2068C65.4095 70.0189 65.5652 69.8313 65.7832 69.8313H67.4029C67.5897 69.8313 67.7454 69.9564 67.7454 70.1443C67.9947 71.8023 68.711 72.6158 72.0126 72.6158C74.6289 72.6158 75.7505 72.0213 75.7505 70.6134C75.7505 69.7999 75.4387 69.2057 71.3586 68.7989C67.9635 68.4546 65.8455 67.7039 65.8455 64.982C65.8455 62.4477 67.9637 60.9459 71.5143 60.9459C75.501 60.9459 77.4634 62.3226 77.7127 65.3258C77.7127 65.42 77.6815 65.5137 77.6192 65.6076C77.5567 65.6701 77.4635 65.7327 77.3699 65.7327H75.7503C75.5945 65.7327 75.4387 65.6076 75.4077 65.4511C75.034 63.7306 74.0683 63.1672 71.5143 63.1672C68.6488 63.1672 68.306 64.1686 68.306 64.9192C68.306 65.8266 68.711 66.1081 72.5732 66.6086C76.4043 67.1094 78.211 67.829 78.211 70.5195C78.1798 73.2728 75.9373 74.8371 71.9814 74.8371Z" fill="#539E43"/>
<path d="M29.5898 28.3457C29.5898 27.7826 29.2783 27.2504 28.78 26.9689L15.5736 19.3351C15.3553 19.2098 15.1063 19.1473 14.8573 19.1159H14.7325C14.4835 19.1159 14.2342 19.2098 14.0162 19.3351L0.809834 26.9689C0.311267 27.2504 0 27.7823 0 28.3457L0.0312615 48.8694C0.0312615 49.1509 0.18703 49.4324 0.436044 49.5578C0.685327 49.7142 0.996594 49.7142 1.21489 49.5578L9.06394 45.0525C9.56224 44.771 9.87378 44.239 9.87378 43.676V34.071C9.87378 33.5079 10.185 32.976 10.6836 32.6945L14.0162 30.7546C14.2655 30.5982 14.5458 30.5354 14.826 30.5354C15.1063 30.5354 15.3866 30.5982 15.6049 30.7546L18.9374 32.6945C19.436 32.976 19.7473 33.5077 19.7473 34.071V43.676C19.7473 44.239 20.0588 44.771 20.5571 45.0525L28.4062 49.5578C28.6555 49.7142 28.9667 49.7142 29.216 49.5578C29.4653 49.4324 29.6211 49.1509 29.6211 48.8694L29.5898 28.3457ZM93.0676 0.0940008C92.8186 -0.0313336 92.507 -0.0313336 92.2887 0.0940008C92.0397 0.250466 91.884 0.500593 91.884 0.782122V21.1185C91.884 21.3061 91.7907 21.4937 91.6037 21.619C91.4169 21.7127 91.2299 21.7127 91.0431 21.619L87.7415 19.7106C87.4995 19.5722 87.2257 19.4994 86.9472 19.4994C86.6687 19.4994 86.3949 19.5722 86.1529 19.7106L72.9465 27.3758C72.4482 27.6573 72.1367 28.1892 72.1367 28.7523V44.0512C72.1367 44.6142 72.4482 45.1464 72.9465 45.428L86.1529 53.0931C86.3949 53.2316 86.6687 53.3044 86.9472 53.3044C87.2257 53.3044 87.4995 53.2316 87.7415 53.0931L100.948 45.428C101.446 45.1464 101.758 44.6145 101.758 44.0512V5.91325C101.758 5.31879 101.446 4.78714 100.948 4.50534L93.0676 0.0940008ZM91.853 39.0143C91.853 39.1707 91.7907 39.2958 91.6659 39.3583L87.1497 41.9863C87.0867 42.0172 87.0174 42.0332 86.9472 42.0332C86.877 42.0332 86.8078 42.0172 86.7447 41.9863L82.2285 39.3583C82.1037 39.2958 82.0415 39.1393 82.0415 39.0143V33.7581C82.0415 33.6016 82.1037 33.4765 82.2285 33.414L86.7447 30.7858C86.8078 30.7549 86.877 30.7388 86.9472 30.7388C87.0174 30.7388 87.0867 30.7549 87.1497 30.7858L91.6659 33.414C91.7907 33.4763 91.853 33.633 91.853 33.7581V39.0143ZM137.016 33.633C137.515 33.3515 137.795 32.8195 137.795 32.2562V28.5333C137.795 27.9702 137.483 27.4383 137.016 27.1568L123.903 19.523C123.661 19.3846 123.388 19.3118 123.109 19.3118C122.831 19.3118 122.557 19.3846 122.315 19.523L109.108 27.1879C108.61 27.4694 108.299 28.0013 108.299 28.5647V43.8636C108.299 44.4266 108.61 44.9586 109.108 45.2401L122.221 52.7488C122.72 53.0303 123.311 53.0303 123.779 52.7488L131.721 48.3066C131.97 48.1813 132.126 47.8997 132.126 47.6182C132.126 47.3367 131.97 47.0551 131.721 46.9298L118.452 39.2647C118.203 39.1085 118.048 38.8581 118.048 38.5765V33.7897C118.048 33.5082 118.203 33.2267 118.452 33.1013L122.595 30.7235C122.716 30.6469 122.857 30.6062 123 30.6062C123.143 30.6062 123.284 30.6469 123.405 30.7235L127.547 33.1013C127.797 33.2578 127.952 33.5079 127.952 33.7897V37.5441C127.952 37.8256 128.108 38.1071 128.357 38.2322C128.607 38.3887 128.918 38.3887 129.167 38.2322L137.016 33.633Z" fill="#333333"/>
<path d="M122.907 32.9136C122.953 32.883 123.007 32.8667 123.062 32.8667C123.118 32.8667 123.172 32.883 123.218 32.9136L125.741 34.384C125.835 34.4463 125.897 34.5402 125.897 34.6655V37.6064C125.897 37.7315 125.835 37.8254 125.741 37.8879L123.218 39.3584C123.172 39.389 123.118 39.4052 123.062 39.4052C123.007 39.4052 122.953 39.389 122.907 39.3584L120.384 37.8879C120.29 37.8254 120.228 37.7315 120.228 37.6064V34.6655C120.228 34.5402 120.29 34.4463 120.384 34.384L122.907 32.9136Z" fill="#539E43"/>
<path d="M51.6735 19.5857C51.4314 19.4473 51.1577 19.3745 50.8792 19.3745C50.6008 19.3745 50.3271 19.4473 50.085 19.5857L36.9722 27.1878C36.4736 27.4693 36.1934 28.0012 36.1934 28.5643V43.8009C36.1934 44.364 36.5049 44.8959 36.9722 45.1774L50.085 52.7801C50.3271 52.9184 50.6008 52.9912 50.8792 52.9912C51.1577 52.9912 51.4314 52.9184 51.6735 52.7801L64.7866 45.1774C65.2849 44.8959 65.5654 44.364 65.5654 43.8009V28.5645C65.5654 28.0015 65.2536 27.4696 64.7866 27.188L51.6735 19.5857Z" fill="url(#paint0_linear_572_1616)"/>
<mask id="mask0_572_1616" style="mask-type:luminance" maskUnits="userSpaceOnUse" x="36" y="19" width="30" height="34">
<path d="M51.6735 19.5857C51.4314 19.4473 51.1577 19.3745 50.8792 19.3745C50.6008 19.3745 50.3271 19.4473 50.085 19.5857L36.9722 27.1878C36.4736 27.4693 36.1934 28.0012 36.1934 28.5643V43.8009C36.1934 44.364 36.5049 44.8959 36.9722 45.1774L50.085 52.7801C50.3271 52.9184 50.6008 52.9912 50.8792 52.9912C51.1577 52.9912 51.4314 52.9184 51.6735 52.7801L64.7866 45.1774C65.2849 44.8959 65.5654 44.364 65.5654 43.8009V28.5645C65.5654 28.0015 65.2536 27.4696 64.7866 27.188L51.6735 19.5857Z" fill="white"/>
</mask>
<g mask="url(#mask0_572_1616)">
<path d="M64.8176 27.1885L51.6425 19.5862C51.513 19.5205 51.3773 19.4681 51.2374 19.4297L36.4736 44.8344C36.5959 44.9844 36.7436 45.1115 36.9099 45.2099L50.085 52.8125C50.4588 53.0315 50.8949 53.094 51.2997 52.9687L65.1604 27.5017C65.0668 27.3766 64.9421 27.2822 64.8176 27.1885Z" fill="url(#paint1_linear_572_1616)"/>
</g>
<mask id="mask1_572_1616" style="mask-type:luminance" maskUnits="userSpaceOnUse" x="36" y="19" width="30" height="34">
<path d="M51.6735 19.5857C51.4314 19.4473 51.1577 19.3745 50.8792 19.3745C50.6008 19.3745 50.3271 19.4473 50.085 19.5857L36.9722 27.1878C36.4736 27.4693 36.1934 28.0012 36.1934 28.5643V43.8009C36.1934 44.364 36.5049 44.8959 36.9722 45.1774L50.085 52.7801C50.3271 52.9184 50.6008 52.9912 50.8792 52.9912C51.1577 52.9912 51.4314 52.9184 51.6735 52.7801L64.7866 45.1774C65.2849 44.8959 65.5654 44.364 65.5654 43.8009V28.5645C65.5654 28.0015 65.2536 27.4696 64.7866 27.188L51.6735 19.5857Z" fill="white"/>
</mask>
<g mask="url(#mask1_572_1616)">
<path fill-rule="evenodd" clip-rule="evenodd" d="M64.8491 45.178C65.2228 44.959 65.5031 44.5835 65.6279 44.177L51.1751 19.3981C50.8013 19.3356 50.3963 19.3667 50.054 19.5857L36.9722 27.1572L51.0816 52.9996C51.2868 52.9659 51.4861 52.9027 51.6734 52.812L64.8488 45.1783L64.8491 45.178Z" fill="url(#paint2_linear_572_1616)"/>
<path fill-rule="evenodd" clip-rule="evenodd" d="M64.8492 45.178L51.7051 52.7806C51.5195 52.8756 51.3195 52.939 51.1133 52.9682L51.3626 53.4376L65.9393 44.9592V44.7714L65.5655 44.1455C65.5033 44.5835 65.223 44.959 64.8492 45.178Z" fill="url(#paint3_linear_572_1616)"/>
<path fill-rule="evenodd" clip-rule="evenodd" d="M64.8492 45.178L51.7051 52.7806C51.5195 52.8756 51.3195 52.939 51.1133 52.9682L51.3626 53.4376L65.9393 44.9592V44.7714L65.5655 44.1455C65.5033 44.5835 65.223 44.959 64.8492 45.178Z" fill="url(#paint4_linear_572_1616)"/>
</g>
<defs>
<linearGradient id="paint0_linear_572_1616" x1="2039.01" y1="607.23" x2="592.574" y2="2869.9" gradientUnits="userSpaceOnUse">
<stop stop-color="#41873F"/>
<stop offset="0.3288" stop-color="#418B3D"/>
<stop offset="0.6352" stop-color="#419637"/>
<stop offset="0.9319" stop-color="#3FA92D"/>
<stop offset="1" stop-color="#3FAE2A"/>
</linearGradient>
<linearGradient id="paint1_linear_572_1616" x1="1277.95" y1="1873.27" x2="4884.89" y2="-77.6711" gradientUnits="userSpaceOnUse">
<stop offset="0.1376" stop-color="#41873F"/>
<stop offset="0.4032" stop-color="#54A044"/>
<stop offset="0.7136" stop-color="#66B848"/>
<stop offset="0.9081" stop-color="#6CC04A"/>
</linearGradient>
<linearGradient id="paint2_linear_572_1616" x1="-88.7978" y1="1700.77" x2="2945.5" y2="1700.77" gradientUnits="userSpaceOnUse">
<stop offset="0.09192" stop-color="#6CC04A"/>
<stop offset="0.2864" stop-color="#66B848"/>
<stop offset="0.5968" stop-color="#54A044"/>
<stop offset="0.8624" stop-color="#41873F"/>
</linearGradient>
<linearGradient id="paint3_linear_572_1616" x1="-1488.73" y1="511.304" x2="1545.53" y2="511.304" gradientUnits="userSpaceOnUse">
<stop offset="0.09192" stop-color="#6CC04A"/>
<stop offset="0.2864" stop-color="#66B848"/>
<stop offset="0.5968" stop-color="#54A044"/>
<stop offset="0.8624" stop-color="#41873F"/>
</linearGradient>
<linearGradient id="paint4_linear_572_1616" x1="1987.58" y1="-1917.12" x2="1212.24" y2="2127.57" gradientUnits="userSpaceOnUse">
<stop stop-color="#41873F"/>
<stop offset="0.3288" stop-color="#418B3D"/>
<stop offset="0.6352" stop-color="#419637"/>
<stop offset="0.9319" stop-color="#3FA92D"/>
<stop offset="1" stop-color="#3FAE2A"/>
</linearGradient>
</defs>
</svg>
