<svg width="143" height="73" viewBox="0 0 143 73" fill="none" xmlns="http://www.w3.org/2000/svg">
<path fill-rule="evenodd" clip-rule="evenodd" d="M71.372 72.3386C110.79 72.3386 142.744 56.1444 142.744 36.1693C142.744 16.1941 110.79 0 71.372 0C31.955 0 0 16.1941 0 36.1693C0 56.1444 31.955 72.3386 71.372 72.3386Z" fill="#6E81B6"/>
<path fill-rule="evenodd" clip-rule="evenodd" d="M85.8304 47.86L89.3706 29.6394C90.1698 25.527 89.5052 22.4598 87.3968 20.5214C85.354 18.646 81.8863 17.7338 76.796 17.7338H70.665L72.4187 8.70632C72.4515 8.53831 72.4468 8.3651 72.4048 8.19913C72.3628 8.03316 72.2846 7.87855 72.1758 7.74638C72.067 7.61421 71.9302 7.50778 71.7754 7.4347C71.6206 7.36163 71.4515 7.32373 71.2803 7.32373H62.8182C62.2624 7.32373 61.7851 7.71814 61.679 8.26358L57.9187 27.607C57.5769 25.4304 56.7346 23.5593 55.3865 22.0153C52.9044 19.1742 48.9784 17.7338 43.7164 17.7338H27.3152C26.7593 17.7338 26.2821 18.1282 26.1759 18.6728L18.5665 57.8273C18.5 58.1682 18.5889 58.5186 18.8099 58.7862C19.0299 59.0546 19.3579 59.209 19.7057 59.209H28.2343C28.7901 59.209 29.2674 58.8146 29.3735 58.2683L31.2144 48.7982H37.5629C40.8943 48.7982 43.694 48.4374 45.8792 47.7262C48.1136 46.9996 50.1703 45.7671 51.9827 44.0704C53.4472 42.7249 54.6572 41.218 55.5885 39.5929L54.0686 47.4156C54.0022 47.7565 54.0911 48.1086 54.312 48.3744C54.5321 48.6428 54.8609 48.7973 55.2079 48.7973H63.67C64.2258 48.7973 64.7031 48.4029 64.8092 47.8583L68.9855 26.3659H74.792C77.2664 26.3659 77.9913 26.8587 78.189 27.0702C78.3676 27.2635 78.7387 27.9444 78.3219 30.0908L74.956 47.4147C74.9238 47.5827 74.929 47.7557 74.9713 47.9214C75.0136 48.0871 75.0919 48.2415 75.2007 48.3734C75.3095 48.5054 75.4461 48.6117 75.6007 48.6849C75.7553 48.758 75.9242 48.7961 76.0952 48.7964H84.692C84.961 48.797 85.2218 48.7038 85.4295 48.5329C85.6373 48.362 85.779 48.1241 85.8304 47.86ZM46.5981 32.8051C46.0665 35.5366 45.0654 37.4845 43.6206 38.5953C42.1535 39.7267 39.8068 40.2998 36.6455 40.2998H32.8654L35.5986 26.2339H40.4861C44.0763 26.2339 45.5228 27.0011 46.1036 27.6441C46.9088 28.5365 47.0797 30.3221 46.5981 32.8051ZM121.475 22.0153C118.994 19.1742 115.068 17.7338 109.806 17.7338H93.4044C92.8478 17.7338 92.3714 18.1282 92.2652 18.6728L84.6566 57.8273C84.5893 58.1682 84.6782 58.5186 84.8991 58.7862C85.1201 59.0537 85.4489 59.209 85.7941 59.209H94.3236C94.8802 59.209 95.3566 58.8146 95.4628 58.2683L97.3037 48.7982H103.653C106.985 48.7982 109.782 48.4374 111.969 47.7262C114.204 46.9996 116.26 45.7671 118.072 44.0704C119.584 42.6818 120.828 41.1205 121.77 39.435C122.713 37.7495 123.388 35.8698 123.783 33.8468C124.752 28.8575 123.976 24.8772 121.475 22.0153ZM113.172 32.8051C112.639 35.5366 111.638 37.4845 110.195 38.5953C108.727 39.7267 106.38 40.2998 103.22 40.2998H99.4388L102.171 26.2339H107.06C110.65 26.2339 112.096 27.0011 112.678 27.6441C113.481 28.5365 113.653 30.3221 113.172 32.8051Z" fill="white"/>
<path fill-rule="evenodd" clip-rule="evenodd" d="M40.4853 25.0729C43.7252 25.0729 45.8854 25.671 46.9651 26.8672C48.0439 28.0634 48.301 30.1174 47.7366 33.0267C47.1463 36.0569 46.0105 38.2197 44.3276 39.516C42.6447 40.8123 40.0831 41.4595 36.6448 41.4595H31.4562L34.6408 25.0729H40.4853ZM19.7041 58.0481H28.2327L30.2565 47.6389H37.5622C40.7857 47.6389 43.4378 47.2998 45.5195 46.6223C47.6011 45.9448 49.4938 44.8099 51.1966 43.2158C52.6258 41.9032 53.7822 40.4532 54.6677 38.8687C55.5523 37.2841 56.1806 35.5365 56.5526 33.6248C57.4554 28.9834 56.7744 25.3681 54.5115 22.779C52.2495 20.189 48.6497 18.8944 43.7157 18.8944H27.3144L19.7041 58.0481ZM62.8166 8.48438H71.2787L69.2557 18.8944H76.7953C81.5369 18.8944 84.8104 19.7212 86.6107 21.3757C88.411 23.0301 88.9504 25.7116 88.2306 29.4184L84.6904 47.6389H76.0936L79.4595 30.3142C79.8418 28.343 79.702 26.9992 79.0366 26.2821C78.3712 25.5657 76.955 25.2067 74.7904 25.2067H68.0276L63.6684 47.6389H55.2063L62.8166 8.48438ZM107.059 25.0729C110.299 25.0729 112.458 25.671 113.539 26.8672C114.617 28.0634 114.874 30.1174 114.309 33.0267C113.721 36.0569 112.585 38.2197 110.901 39.516C109.219 40.8123 106.657 41.4595 103.22 41.4595H98.0313L101.215 25.0729H107.059ZM86.2758 58.0481H94.8053L96.8283 47.6389H104.134C107.358 47.6389 110.01 47.2998 112.092 46.6223C114.174 45.9448 116.066 44.8099 117.769 43.2158C119.198 41.9032 120.355 40.4532 121.239 38.8687C122.124 37.2841 122.753 35.5365 123.126 33.6248C124.028 28.9834 123.347 25.3681 121.085 22.779C118.821 20.189 115.222 18.8944 110.288 18.8944H93.887L86.2758 58.0481Z" fill="black"/>
</svg>
