<svg width="101" height="101" viewBox="0 0 101 101" fill="none" xmlns="http://www.w3.org/2000/svg">
<g clip-path="url(#clip0_572_1550)">
<path d="M49.9408 0.0283203C24.4298 0.0283203 26.0226 11.0623 26.0226 11.0623L26.0509 22.4938H50.3956V25.9258H16.3816C16.3816 25.9258 0.0571289 24.0793 0.0571289 49.752C0.0571289 75.4254 14.3055 74.5149 14.3055 74.5149H22.8089V62.6014C22.8089 62.6014 22.3505 48.3905 36.8299 48.3905H60.9755C60.9755 48.3905 74.5412 48.6091 74.5412 35.3142V13.3319C74.5412 13.3319 76.6015 0.0283203 49.9408 0.0283203ZM36.5171 7.71579C37.0924 7.71527 37.6621 7.8279 38.1937 8.04723C38.7253 8.26657 39.2083 8.58829 39.6151 8.99401C40.0219 9.39972 40.3445 9.88146 40.5644 10.4116C40.7843 10.9418 40.8972 11.5101 40.8967 12.0838C40.8972 12.6576 40.7843 13.2258 40.5644 13.756C40.3445 14.2862 40.0219 14.768 39.6151 15.1737C39.2083 15.5794 38.7253 15.9011 38.1937 16.1205C37.6621 16.3398 37.0924 16.4524 36.5171 16.4519C35.9418 16.4524 35.3721 16.3398 34.8405 16.1205C34.3089 15.9011 33.8259 15.5794 33.4191 15.1737C33.0123 14.768 32.6897 14.2862 32.4698 13.756C32.2499 13.2258 32.137 12.6576 32.1375 12.0838C32.137 11.5101 32.2499 10.9418 32.4698 10.4116C32.6897 9.88146 33.0123 9.39972 33.4191 8.99401C33.8259 8.58829 34.3089 8.26657 34.8405 8.04723C35.3721 7.8279 35.9418 7.71527 36.5171 7.71579Z" fill="url(#paint0_linear_572_1550)"/>
<path d="M50.6651 99.7337C76.1761 99.7337 74.5832 88.6998 74.5832 88.6998L74.5549 77.2686H50.2098V73.8366H84.2238C84.2238 73.8366 100.548 75.6831 100.548 50.0097C100.548 24.3367 86.2999 25.2472 86.2999 25.2472H77.7965V37.1602C77.7965 37.1602 78.2549 51.3711 63.7755 51.3711H39.63C39.63 51.3711 26.0642 51.1525 26.0642 64.4478V86.4306C26.0642 86.4306 24.0043 99.7337 50.6647 99.7337H50.6651ZM64.0888 92.047C63.5135 92.0475 62.9437 91.9349 62.4121 91.7156C61.8806 91.4962 61.3975 91.1745 60.9908 90.7688C60.584 90.3631 60.2614 89.8814 60.0415 89.3512C59.8216 88.821 59.7086 88.2527 59.7092 87.679C59.7086 87.1052 59.8215 86.5369 60.0414 86.0067C60.2613 85.4764 60.5838 84.9946 60.9906 84.5889C61.3974 84.1831 61.8804 83.8614 62.412 83.642C62.9437 83.4226 63.5134 83.31 64.0888 83.3105C64.664 83.31 65.2338 83.4226 65.7654 83.642C66.2969 83.8613 66.78 84.183 67.1867 84.5887C67.5935 84.9945 67.9161 85.4762 68.136 86.0064C68.3559 86.5366 68.4689 87.1048 68.4683 87.6786C68.4689 88.2523 68.3559 88.8206 68.136 89.3508C67.9161 89.881 67.5935 90.3627 67.1867 90.7684C66.78 91.1741 66.2969 91.4959 65.7654 91.7152C65.2338 91.9345 64.664 92.0475 64.0888 92.047Z" fill="url(#paint1_linear_572_1550)"/>
</g>
<defs>
<linearGradient id="paint0_linear_572_1550" x1="965.775" y1="896.82" x2="5932.82" y2="5827.29" gradientUnits="userSpaceOnUse">
<stop stop-color="#387EB8"/>
<stop offset="1" stop-color="#366994"/>
</linearGradient>
<linearGradient id="paint1_linear_572_1550" x1="1451.46" y1="1558.18" x2="6786.15" y2="6614.54" gradientUnits="userSpaceOnUse">
<stop stop-color="#FFE052"/>
<stop offset="1" stop-color="#FFC331"/>
</linearGradient>
<clipPath id="clip0_572_1550">
<rect width="100.744" height="100.341" fill="white"/>
</clipPath>
</defs>
</svg>
