<svg width="114" height="102" viewBox="0 0 114 102" fill="none" xmlns="http://www.w3.org/2000/svg">
<path d="M114 51.0114C114 43.4536 104.543 36.2911 90.0428 31.8495C93.3889 17.0594 91.9018 5.29251 85.349 1.52523C83.8386 0.641547 82.0726 0.222961 80.1439 0.222961V5.40878C81.2128 5.40878 82.0726 5.61807 82.7929 6.0134C85.9531 7.82728 87.3241 14.7339 86.2552 23.6173C85.9996 25.8032 85.5813 28.1055 85.0701 30.4542C80.5157 29.338 75.543 28.4775 70.3147 27.9194C67.1777 23.6173 63.9246 19.7105 60.6482 16.292C68.2234 9.24582 75.3339 5.38553 80.1671 5.38553V0.199707C73.777 0.199707 65.4117 4.75765 56.9535 12.6643C48.4953 4.80416 40.13 0.292727 33.7399 0.292727V5.47854C38.5499 5.47854 45.6837 9.31558 53.2589 16.3153C50.0057 19.7337 46.7526 23.6173 43.6621 27.9194C38.4105 28.4775 33.4378 29.338 28.8834 30.4774C28.349 28.152 27.9539 25.8962 27.6751 23.7336C26.583 14.8502 27.9307 7.94355 31.0677 6.10642C31.7648 5.68784 32.671 5.5018 33.7399 5.5018V0.315981C31.788 0.315981 30.022 0.734567 28.4884 1.61825C21.9588 5.38552 20.4949 17.1292 23.8642 31.8727C9.41092 36.3376 0 43.4769 0 51.0114C0 58.5692 9.4574 65.7317 23.9572 70.1734C20.6111 84.9634 22.0982 96.7303 28.651 100.498C30.1614 101.381 31.9274 101.8 33.8793 101.8C40.2695 101.8 48.6347 97.2419 57.0929 89.3353C65.5512 97.1954 73.9164 101.707 80.3066 101.707C82.2585 101.707 84.0245 101.288 85.5581 100.405C92.0877 96.6373 93.5516 84.8936 90.1822 70.1501C104.589 65.7084 114 58.546 114 51.0114ZM83.7456 35.5005C82.8858 38.5003 81.817 41.5932 80.6086 44.6861C79.6559 42.8257 78.6567 40.9654 77.5646 39.105C76.4957 37.2446 75.3571 35.4307 74.2185 33.6633C77.5182 34.1517 80.7016 34.7563 83.7456 35.5005ZM73.1031 60.2668C71.2907 63.4062 69.4317 66.3828 67.5031 69.1502C64.0408 69.4525 60.532 69.6152 57 69.6152C53.4912 69.6152 49.9825 69.4525 46.5434 69.1734C44.6148 66.4061 42.7326 63.4527 40.9201 60.3366C39.1541 57.2902 37.5508 54.1973 36.0868 51.0812C37.5275 47.965 39.1541 44.8489 40.8969 41.8025C42.7093 38.6631 44.5683 35.6865 46.4969 32.9192C49.9592 32.6169 53.468 32.4541 57 32.4541C60.5088 32.4541 64.0175 32.6169 67.4566 32.8959C69.3852 35.6633 71.2674 38.6166 73.0799 41.7328C74.8459 44.7791 76.4492 47.872 77.9132 50.9882C76.4492 54.1043 74.8459 57.2204 73.1031 60.2668ZM80.6086 57.2437C81.8634 60.3598 82.9323 63.476 83.8153 66.4991C80.7713 67.2433 77.5646 67.8711 74.2418 68.3595C75.3804 66.5689 76.519 64.7317 77.5879 62.8481C78.6568 60.9877 79.6559 59.1041 80.6086 57.2437ZM57.0465 82.0566C54.8855 79.8241 52.7244 77.3358 50.5866 74.615C52.6779 74.708 54.8157 74.7778 56.9768 74.7778C59.161 74.7778 61.3221 74.7313 63.4366 74.615C61.3453 77.3358 59.1843 79.8241 57.0465 82.0566ZM39.7583 68.3595C36.4586 67.8711 33.2752 67.2665 30.2311 66.5224C31.0909 63.5225 32.1598 60.4296 33.3681 57.3367C34.3208 59.1971 35.32 61.0575 36.4122 62.9179C37.5043 64.7783 38.6196 66.5921 39.7583 68.3595ZM56.9303 19.9663C59.0913 22.1987 61.2523 24.687 63.3901 27.4078C61.2988 27.3148 59.161 27.245 57 27.245C54.8157 27.245 52.6547 27.2915 50.5402 27.4078C52.6315 24.687 54.7925 22.1987 56.9303 19.9663ZM39.735 33.6633C38.5964 35.454 37.4578 37.2911 36.3889 39.1747C35.32 41.0351 34.3208 42.8955 33.3681 44.7559C32.1133 41.6397 31.0444 38.5236 30.1614 35.5005C33.2055 34.7796 36.4122 34.1517 39.735 33.6633ZM18.7057 62.7783C10.4798 59.2669 5.15858 54.6624 5.15858 51.0114C5.15858 47.3604 10.4798 42.7327 18.7057 39.2445C20.704 38.3841 22.8883 37.6167 25.1423 36.8958C26.4668 41.4537 28.2095 46.1977 30.3706 51.0579C28.2328 55.8949 26.5133 60.6156 25.212 65.1503C22.9115 64.4294 20.7273 63.6388 18.7057 62.7783ZM31.2071 96.0094C28.0469 94.1956 26.6759 87.2889 27.7448 78.4056C28.0004 76.2196 28.4187 73.9174 28.9299 71.5686C33.4843 72.6849 38.457 73.5453 43.6853 74.1034C46.8223 78.4056 50.0754 82.3124 53.3518 85.7308C45.7766 92.777 38.6661 96.6373 33.8329 96.6373C32.7872 96.6141 31.9042 96.4048 31.2071 96.0094ZM86.3249 78.2893C87.417 87.1726 86.0693 94.0793 82.9323 95.9164C82.2352 96.335 81.329 96.521 80.2601 96.521C75.4501 96.521 68.3164 92.684 60.7411 85.6843C63.9943 82.2659 67.2475 78.3823 70.338 74.0802C75.5895 73.5221 80.5622 72.6616 85.1166 71.5221C85.651 73.8709 86.0693 76.1266 86.3249 78.2893ZM95.2711 62.7783C93.2727 63.6388 91.0885 64.4062 88.8345 65.1271C87.51 60.5691 85.7672 55.8252 83.6062 50.9649C85.744 46.1279 87.4635 41.4072 88.7648 36.8725C91.0652 37.5934 93.2495 38.3841 95.2943 39.2445C103.52 42.756 108.841 47.3604 108.841 51.0114C108.818 54.6624 103.497 59.2901 95.2711 62.7783Z" fill="#61DAFB"/>
<path d="M56.9767 61.6387C62.8415 61.6387 67.5959 56.8806 67.5959 51.0112C67.5959 45.1419 62.8415 40.3838 56.9767 40.3838C51.1118 40.3838 46.3574 45.1419 46.3574 51.0112C46.3574 56.8806 51.1118 61.6387 56.9767 61.6387Z" fill="#61DAFB"/>
</svg>
