<svg width="87" height="95" viewBox="0 0 87 95" fill="none" xmlns="http://www.w3.org/2000/svg">
<path d="M86.0547 38.43C86.0547 32.7692 78.9698 27.4045 68.1071 24.0777C70.614 12.9997 69.4999 4.18617 64.5906 1.36442C63.459 0.702528 62.1363 0.388992 60.6914 0.388992V4.27326C61.4921 4.27326 62.1363 4.43003 62.6758 4.72612C65.0433 6.08472 66.0705 11.2579 65.2694 17.9116C65.0783 19.5489 64.765 21.2733 64.3819 23.0325C60.9697 22.1965 57.2445 21.552 53.3278 21.134C50.9778 17.9116 48.5407 14.9854 46.086 12.4249C51.761 7.14724 57.088 4.25581 60.7089 4.25581V0.371582C55.9214 0.371582 49.6547 3.78554 43.3184 9.70768C36.9816 3.82036 30.715 0.441261 25.9279 0.441261V4.32549C29.5312 4.32549 34.8754 7.19951 40.5504 12.4423C38.1132 15.0028 35.6761 17.9116 33.3608 21.134C29.4265 21.552 25.7013 22.1965 22.2895 23.05C21.8889 21.3082 21.5931 19.6186 21.3841 17.9987C20.5662 11.345 21.5756 6.17181 23.9259 4.79579C24.4479 4.48226 25.1268 4.34294 25.9279 4.34294V0.458671C24.4654 0.458671 23.1423 0.772207 21.9936 1.4341C17.1018 4.25581 16.0053 13.052 18.5292 24.0951C7.70158 27.4394 0.651367 32.7868 0.651367 38.43C0.651367 44.0912 7.73637 49.456 18.5989 52.7826C16.0921 63.8607 17.2061 72.674 22.1155 75.4959C23.247 76.1576 24.5697 76.4711 26.0322 76.4711C30.8193 76.4711 37.0863 73.0573 43.4227 67.1352C49.759 73.0226 56.0261 76.4018 60.8132 76.4018C62.2753 76.4018 63.5984 76.0883 64.7474 75.4261C69.6389 72.6043 70.7358 63.8082 68.2115 52.7655C79.0044 49.4385 86.0547 44.0737 86.0547 38.43ZM63.3897 26.8123C62.7455 29.0594 61.9448 31.3757 61.0394 33.6923C60.3259 32.2991 59.5773 30.9055 58.7591 29.512C57.9584 28.1187 57.1051 26.76 56.2523 25.4363C58.7241 25.802 61.109 26.2549 63.3897 26.8123ZM55.4165 45.3625C54.0588 47.7142 52.6664 49.9436 51.2215 52.0165C48.6275 52.2428 45.9992 52.3647 43.353 52.3647C40.7244 52.3647 38.0957 52.2428 35.5196 52.0336C34.0747 49.9608 32.6644 47.7489 31.3066 45.4147C29.9835 43.1331 28.7827 40.8164 27.6858 38.4826C28.7652 36.1484 29.9835 33.8142 31.2895 31.5326C32.6472 29.1813 34.0396 26.9516 35.4845 24.8789C38.0786 24.6524 40.7068 24.5305 43.353 24.5305C45.9817 24.5305 48.6103 24.6524 51.1865 24.8615C52.6314 26.9342 54.0417 29.1462 55.3994 31.4804C56.7225 33.762 57.9234 36.0787 59.0203 38.4129C57.9234 40.7467 56.7225 43.0809 55.4165 45.3625ZM61.0394 43.0984C61.9532 45.3683 62.755 47.6818 63.4419 50.0305C61.1612 50.5878 58.7591 51.0583 56.2698 51.4241C57.1227 50.0831 57.9755 48.707 58.7766 47.2959C59.5773 45.9027 60.3259 44.4916 61.0394 43.0984ZM43.3877 61.6835C41.7687 60.0111 40.1498 58.1474 38.5484 56.1096C40.1152 56.1793 41.7166 56.2315 43.3355 56.2315C44.9719 56.2315 46.5909 56.1968 48.1752 56.1096C46.6809 58.0525 45.0827 59.9132 43.3877 61.6835ZM30.4363 51.4241C27.9645 51.0583 25.5795 50.6054 23.2992 50.048C23.943 47.8011 24.7441 45.4844 25.6492 43.1677C26.3631 44.5613 27.1116 45.9549 27.9294 47.3481C28.7477 48.7417 29.5834 50.1002 30.4363 51.4241ZM43.3009 15.177C44.9198 16.8491 46.5387 18.7129 48.1401 20.7508C46.5734 20.6811 44.9719 20.6289 43.353 20.6289C41.7166 20.6289 40.0977 20.6637 38.5138 20.7508C40.0079 18.8079 41.6059 16.9473 43.3009 15.177ZM30.4187 25.4363C29.5659 26.7775 28.713 28.1535 27.9123 29.5642C27.1116 30.9577 26.3631 32.3513 25.6492 33.7445C24.7353 31.4746 23.9336 29.1611 23.247 26.8123C25.5273 26.2723 27.9294 25.802 30.4187 25.4363ZM14.6647 47.2437C8.50236 44.6135 4.51593 41.165 4.51593 38.43C4.51593 35.6954 8.50236 32.2294 14.6647 29.6167C16.1618 28.9721 17.7982 28.3973 19.4868 27.8574C20.479 31.2713 21.7846 34.8246 23.4035 38.4651C21.8021 42.0881 20.5137 45.6238 19.539 49.0205C17.8157 48.4803 16.1793 47.8883 14.6647 47.2437ZM24.0302 72.1342C21.6628 70.7757 20.6355 65.6025 21.4366 58.9485C21.6281 57.3115 21.9411 55.5869 22.3241 53.8276C25.7364 54.6638 29.4616 55.3084 33.3783 55.7263C35.7282 58.9485 38.1654 61.8748 40.62 64.4352C34.945 69.7132 29.618 72.6043 25.9972 72.6043C25.214 72.5872 24.5526 72.4302 24.0302 72.1342ZM65.322 58.8617C66.1398 65.5153 65.1305 70.6884 62.7801 72.0645C62.2581 72.378 61.5793 72.5175 60.7782 72.5175C57.1748 72.5175 51.8307 69.6434 46.1557 64.4006C48.5928 61.8401 51.03 58.9314 53.3453 55.7088C57.2795 55.2909 61.0047 54.6463 64.4166 53.7929C64.8171 55.5522 65.1305 57.2418 65.322 58.8617ZM72.0238 47.2437C70.5268 47.8883 68.8903 48.4632 67.2017 49.003C66.2095 45.5892 64.9039 42.0359 63.285 38.3954C64.8868 34.7724 66.1749 31.2366 67.1496 27.8399C68.8732 28.3799 70.5092 28.9721 72.0414 29.6167C78.2037 32.2465 82.1901 35.6954 82.1901 38.43C82.1726 41.165 78.1862 44.631 72.0238 47.2437Z" fill="#61DAFB"/>
<path d="M43.3357 46.3905C47.7296 46.3905 51.2913 42.8267 51.2913 38.4301C51.2913 34.034 47.7296 30.4702 43.3357 30.4702C38.9421 30.4702 35.3804 34.034 35.3804 38.4301C35.3804 42.8267 38.9421 46.3905 43.3357 46.3905ZM4.5295 90.1769H1.90337V94.7023H0.421387V83.5155H4.12253C5.38182 83.5155 6.34937 83.8025 7.02508 84.3763C7.70593 84.9496 8.04638 85.7846 8.04638 86.8807C8.04638 87.5774 7.85696 88.1843 7.47814 88.7019C7.10445 89.2191 6.5823 89.6059 5.91168 89.8618L8.53782 94.61V94.7023H6.95598L4.5295 90.1769ZM1.90337 88.9706H4.16862C4.90066 88.9706 5.48167 88.781 5.91168 88.402C6.3468 88.023 6.56435 87.5159 6.56435 86.8807C6.56435 86.1893 6.35703 85.6592 5.94239 85.2904C5.53286 84.9216 4.93904 84.7346 4.16091 84.7295H1.90337V88.9706ZM13.3448 94.8562C12.2185 94.8562 11.3021 94.4873 10.5957 93.7496C9.88924 93.0069 9.53603 92.0156 9.53603 90.7763V90.515C9.53603 89.6904 9.69216 88.9555 10.0044 88.3101C10.3218 87.6592 10.7621 87.1521 11.3252 86.7887C11.8934 86.4199 12.5077 86.2353 13.1681 86.2353C14.2483 86.2353 15.0879 86.5913 15.6866 87.3033C16.2857 88.0152 16.585 89.0345 16.585 90.3611V90.9527H10.9566C10.9771 91.7726 11.2151 92.4359 11.6707 92.943C12.1314 93.4447 12.715 93.6959 13.4215 93.6959C13.9233 93.6959 14.348 93.5935 14.696 93.3886C15.0443 93.1837 15.3487 92.9123 15.6099 92.5742L16.4776 93.2503C15.7812 94.3206 14.7372 94.8562 13.3448 94.8562ZM13.1681 87.4034C12.5947 87.4034 12.1135 87.6133 11.7245 88.0332C11.3354 88.4483 11.0948 89.0322 11.0027 89.7851H15.1646V89.6776C15.1238 88.9555 14.9291 88.3969 14.5811 88.0024C14.2327 87.6032 13.7617 87.4034 13.1681 87.4034ZM23.3655 94.7023C23.2834 94.5384 23.2168 94.2466 23.1658 93.8264C22.5053 94.5126 21.717 94.8562 20.8007 94.8562C19.9817 94.8562 19.3087 94.6256 18.7812 94.1644C18.2592 93.6982 17.998 93.1093 17.998 92.3973C17.998 91.5319 18.3258 90.8608 18.9809 90.3845C19.6411 89.9027 20.5679 89.662 21.7606 89.662H23.1429V89.0092C23.1429 88.5122 22.9942 88.1177 22.6976 87.8259C22.4006 87.5288 21.9626 87.3804 21.3842 87.3804C20.8774 87.3804 20.4527 87.5081 20.1098 87.7644C19.7668 88.0203 19.5952 88.3303 19.5952 88.6941H18.167C18.167 88.2793 18.3129 87.8797 18.6045 87.4953C18.9015 87.1062 19.3009 86.7989 19.8026 86.5734C20.3095 86.3482 20.8645 86.2353 21.4687 86.2353C22.4262 86.2353 23.176 86.476 23.7186 86.9578C24.2612 87.4341 24.5426 88.0924 24.5633 88.9321V92.7584C24.5633 93.5218 24.6606 94.1286 24.8552 94.5792V94.7023H23.3655ZM21.0082 93.6192C21.4535 93.6192 21.8758 93.5039 22.2752 93.2733C22.6742 93.0427 22.9634 92.7432 23.1429 92.3744V90.6688H22.0292C20.2888 90.6688 19.4184 91.1782 19.4184 92.1975C19.4184 92.6431 19.5671 92.9917 19.8638 93.2425C20.1608 93.4934 20.5422 93.6192 21.0082 93.6192ZM30.1227 93.6959C30.6295 93.6959 31.0725 93.542 31.4512 93.2347C31.83 92.9274 32.0398 92.5434 32.0806 92.0822H33.4247C33.399 92.5586 33.2352 93.0119 32.9331 93.4423C32.631 93.8727 32.2266 94.2159 31.7198 94.4717C31.218 94.728 30.6859 94.8562 30.1227 94.8562C28.9915 94.8562 28.0903 94.4795 27.4197 93.7267C26.7544 92.9683 26.4216 91.9339 26.4216 90.6225V90.3845C26.4216 89.5751 26.5699 88.8554 26.8669 88.2256C27.1639 87.5954 27.5886 87.1062 28.1417 86.758C28.6995 86.4094 29.3574 86.2353 30.1149 86.2353C31.0468 86.2353 31.8198 86.5145 32.4341 87.0731C33.0534 87.6312 33.3835 88.356 33.4247 89.2472H32.0806C32.0398 88.7093 31.835 88.2688 31.4664 87.9257C31.1032 87.5775 30.6524 87.4034 30.1149 87.4034C29.3932 87.4034 28.8327 87.6643 28.4333 88.187C28.0394 88.7042 27.842 89.4548 27.842 90.4382V90.707C27.842 91.6647 28.0394 92.4024 28.4333 92.9196C28.8276 93.4373 29.3909 93.6959 30.1227 93.6959ZM36.9491 84.3763V86.3891H38.5003V87.4879H36.9491V92.6431C36.9491 92.9761 37.0184 93.2269 37.1566 93.396C37.2948 93.56 37.5303 93.6421 37.8631 93.6421C38.0266 93.6421 38.2519 93.6114 38.5384 93.5498V94.7023C38.1647 94.8048 37.8016 94.8562 37.4481 94.8562C36.8136 94.8562 36.3348 94.6638 36.0121 94.2797C35.6898 93.8957 35.5287 93.35 35.5287 92.6431V87.4879H34.0156V86.3891H35.5287V84.3763H36.9491ZM52.8826 94.7023H51.4003L45.772 86.0818V94.7023H44.2901V83.5155H45.772L51.4159 92.1746V83.5155H52.8826V94.7023ZM60.4077 94.7023C60.3256 94.5384 60.2591 94.2466 60.2081 93.8264C59.5475 94.5126 58.7592 94.8562 57.8429 94.8562C57.0239 94.8562 56.3505 94.6256 55.8235 94.1644C55.3015 93.6982 55.0403 93.1093 55.0403 92.3973C55.0403 91.5319 55.3676 90.8608 56.0231 90.3845C56.6833 89.9027 57.6101 89.662 58.8028 89.662H60.1851V89.0092C60.1851 88.5122 60.0364 88.1177 59.7394 87.8259C59.4428 87.5288 59.0049 87.3804 58.4264 87.3804C57.9196 87.3804 57.4949 87.5081 57.152 87.7644C56.8091 88.0203 56.6374 88.3303 56.6374 88.6941H55.2092C55.2092 88.2793 55.3552 87.8797 55.6467 87.4953C55.9437 87.1062 56.3431 86.7989 56.8449 86.5734C57.3517 86.3482 57.9068 86.2353 58.5109 86.2353C59.4681 86.2353 60.2182 86.476 60.7608 86.9578C61.3034 87.4341 61.5849 88.0924 61.6055 88.9321V92.7584C61.6055 93.5218 61.7028 94.1286 61.8974 94.5792V94.7023H60.4077ZM58.0504 93.6192C58.4957 93.6192 58.9181 93.5039 59.3174 93.2733C59.7164 93.0427 60.0056 92.7432 60.1851 92.3744V90.6688H59.0714C57.3311 90.6688 56.4607 91.1782 56.4607 92.1975C56.4607 92.6431 56.6094 92.9917 56.906 93.2425C57.203 93.4934 57.5845 93.6192 58.0504 93.6192ZM65.7597 84.3763V86.3891H67.3109V87.4879H65.7597V92.6431C65.7597 92.9761 65.8289 93.2269 65.9671 93.396C66.1053 93.56 66.3408 93.6421 66.6736 93.6421C66.8371 93.6421 67.0625 93.6114 67.3494 93.5498V94.7023C66.9753 94.8048 66.6121 94.8562 66.2587 94.8562C65.6242 94.8562 65.1454 94.6638 64.8227 94.2797C64.5004 93.8957 64.3393 93.35 64.3393 92.6431V87.4879H62.8266V86.3891H64.3393V84.3763H65.7597ZM70.5207 94.7023H69.0999V86.3891H70.5207V94.7023ZM68.9847 84.1839C68.9847 83.9537 69.054 83.7589 69.1921 83.6C69.3354 83.4411 69.5452 83.362 69.8216 83.362C70.0983 83.362 70.3081 83.4411 70.4514 83.6C70.5946 83.7589 70.6663 83.9537 70.6663 84.1839C70.6663 84.4144 70.5946 84.6065 70.4514 84.7603C70.3081 84.9138 70.0983 84.9909 69.8216 84.9909C69.5452 84.9909 69.3354 84.9138 69.1921 84.7603C69.054 84.6065 68.9847 84.4144 68.9847 84.1839ZM75.5425 92.774L77.6001 86.3891H79.0517L76.0723 94.7023H74.9894L71.9796 86.3891H73.4308L75.5425 92.774ZM83.7586 94.8562C82.6325 94.8562 81.7161 94.4873 81.0096 93.7496C80.3031 93.0069 79.9501 92.0156 79.9501 90.7763V90.515C79.9501 89.6904 80.1062 88.9555 80.4184 88.3101C80.7356 87.6592 81.1759 87.1521 81.7391 86.7887C82.3074 86.4199 82.9217 86.2353 83.5819 86.2353C84.662 86.2353 85.5017 86.5913 86.1007 87.3033C86.6994 88.0152 86.9992 89.0345 86.9992 90.3611V90.9527H81.3705C81.3911 91.7726 81.6289 92.4359 82.0848 92.943C82.5453 93.4447 83.1292 93.6959 83.8353 93.6959C84.337 93.6959 84.7621 93.5935 85.1101 93.3886C85.4581 93.1837 85.7629 92.9123 86.0241 92.5742L86.8917 93.2503C86.1954 94.3206 85.151 94.8562 83.7586 94.8562ZM83.5819 87.4034C83.0089 87.4034 82.5274 87.6133 82.1385 88.0332C81.7492 88.4483 81.5087 89.0322 81.4168 89.7851H85.5784V89.6776C85.5375 88.9555 85.3429 88.3969 84.9949 88.0024C84.6469 87.6032 84.1759 87.4034 83.5819 87.4034Z" fill="#61DAFB"/>
</svg>
