<svg width="93" height="106" viewBox="0 0 93 106" fill="none" xmlns="http://www.w3.org/2000/svg">
<g clip-path="url(#clip0_572_1583)">
<path d="M81.1816 20.7253C81.1087 20.1976 80.6447 19.9056 80.2612 19.8734C79.8785 19.8416 71.7788 19.2434 71.7788 19.2434C71.7788 19.2434 66.1534 13.679 65.536 13.0631C64.9182 12.4476 63.7117 12.6348 63.2433 12.7721C63.1744 12.7924 62.0143 13.1491 60.0953 13.7408C58.2162 8.35313 54.8998 3.40208 49.0655 3.40208C48.9044 3.40208 48.7386 3.40858 48.5729 3.41798C46.9136 1.23161 44.8582 0.281738 43.0828 0.281738C29.4919 0.281738 22.9988 17.2099 20.963 25.8123C15.6819 27.4428 11.9302 28.6019 11.451 28.7519C8.50321 29.6732 8.40998 29.7658 8.02291 32.5333C7.73161 34.6286 0.0185547 94.0604 0.0185547 94.0604L60.1203 105.28L92.6855 98.2611C92.6855 98.2611 81.2534 21.253 81.1816 20.7253ZM56.7735 14.7644L51.6879 16.3327C51.6897 15.9756 51.6915 15.6243 51.6915 15.2401C51.6915 11.8917 51.225 9.19565 50.4766 7.05844C53.4828 7.43434 55.4849 10.8424 56.7735 14.7644ZM46.7474 7.72241C47.5832 9.80902 48.1267 12.8036 48.1267 16.8445C48.1267 17.0513 48.1248 17.2403 48.123 17.4315C44.8157 18.4522 41.2218 19.5604 37.62 20.6722C39.6424 12.8954 43.4332 9.13927 46.7474 7.72241ZM42.7095 3.91388C43.2961 3.91388 43.8871 4.11231 44.4526 4.50014C40.0969 6.5423 35.4282 11.6856 33.4565 21.9568L25.1544 24.5187C27.4637 16.6844 32.9476 3.91388 42.7095 3.91388Z" fill="#95BF46"/>
<path d="M80.2611 19.8731C79.8784 19.8413 71.7786 19.2431 71.7786 19.2431C71.7786 19.2431 66.1532 13.6787 65.5358 13.0628C65.3047 12.8336 64.9931 12.7161 64.6674 12.6655L60.123 105.279L92.6853 98.2607C92.6853 98.2607 81.2532 21.2527 81.1814 20.725C81.1085 20.1973 80.6445 19.9052 80.2611 19.8731Z" fill="#5E8E3E"/>
<path d="M49.0652 37.8018L45.0498 49.7027C45.0498 49.7027 41.5317 47.8319 37.2192 47.8319C30.897 47.8319 30.5789 51.785 30.5789 52.7811C30.5789 58.2165 44.7991 60.2991 44.7991 73.0306C44.7991 83.0473 38.4229 89.4973 29.8254 89.4973C19.5084 89.4973 14.2324 83.0997 14.2324 83.0997L16.9949 74.0058C16.9949 74.0058 22.4182 78.6449 26.9944 78.6449C29.9847 78.6449 31.201 76.2991 31.201 74.5852C31.201 67.4951 19.5346 67.1789 19.5346 55.5285C19.5346 45.7229 26.5983 36.2339 40.857 36.2339C46.351 36.2339 49.0652 37.8018 49.0652 37.8018Z" fill="white"/>
</g>
<defs>
<clipPath id="clip0_572_1583">
<rect width="92.5387" height="105.541" fill="white"/>
</clipPath>
</defs>
</svg>
