<svg width="90" height="90" viewBox="0 0 90 90" fill="none" xmlns="http://www.w3.org/2000/svg">
<g clip-path="url(#clip0_572_1655)">
<path d="M45.0018 90C20.0637 90 -0.186298 70.1244 0.001788 45C0.189874 19.8756 19.1268 0 45.0018 0C70.8785 0 90.0018 20.25 90.0018 45C90.0018 69.75 69.9399 90 45.0018 90ZM58.3137 83.0619L45.5643 48.7494L33.5637 83.8125C42.3774 85.8762 48.3768 86.4369 58.3137 83.0619ZM27.1899 81.1881L8.06488 28.8756C5.4387 34.5006 4.87796 39.1887 4.50179 45C4.68987 60.3738 13.3137 74.4363 27.1899 81.1881ZM85.3155 45C85.5018 35.0631 81.0035 27.1881 80.6274 26.0631C81.0035 33.7518 79.8768 37.6875 78.5655 42.0012L65.4399 79.6887C81.9405 69.75 85.1256 54.9369 85.5018 45H85.3155ZM43.6905 43.3125L37.3149 25.875L32.6268 25.5006C30.753 24.1875 31.8762 22.1256 33.1893 22.1256C41.6268 22.6881 46.3131 22.6881 54.7524 22.1256C56.816 22.1256 57.3768 25.1262 54.9387 25.5006L50.4387 25.875L65.0619 68.9994L71.9983 45.3744C72.3744 35.0631 69.5602 33.9381 65.8108 26.4375C62.8102 20.6244 65.9988 14.9994 71.8119 14.8131C67.1221 10.3131 57.5614 4.68809 44.9983 4.5C32.4352 4.31191 19.1233 10.6875 11.2483 22.6881L25.1244 22.3137C26.8119 23.0643 26.0614 25.5006 25.1244 25.6887L20.25 26.0631L34.875 69.9381L43.6905 43.3125Z" fill="#21759B"/>
</g>
<defs>
<clipPath id="clip0_572_1655">
<rect width="90" height="90" fill="white"/>
</clipPath>
</defs>
</svg>
