<svg width="65" height="81" viewBox="0 0 65 81" fill="none" xmlns="http://www.w3.org/2000/svg">
<path fill-rule="evenodd" clip-rule="evenodd" d="M23.6754 67.3418L17.6856 80.0837C17.5538 80.364 17.2773 80.5482 16.9678 80.5617C16.6581 80.5752 16.3666 80.4157 16.211 80.1478L11.9616 72.8348L3.63545 74.2933C3.32979 74.347 3.01978 74.2262 2.83078 73.9802C2.64178 73.734 2.60512 73.4032 2.73578 73.1218L9.53962 58.4607C10.0411 58.699 10.4283 58.9275 10.7698 59.2145C11.681 59.98 12.2396 61.1363 13.947 63.747L13.9478 63.7482C16.0765 66.9993 19.9321 68.4342 23.6754 67.3418ZM36.4601 67.6842C39.5436 67.887 42.5003 66.441 44.2635 63.7482L44.2658 63.7447C45.9678 61.1362 46.5255 59.9803 47.4368 59.2155C48.0511 58.7 48.8121 58.3732 50.1185 57.8395L55.52 70.45C55.6419 70.735 55.5958 71.0643 55.3998 71.3047C55.2038 71.545 54.8906 71.6567 54.5868 71.5945L46.3038 69.9L41.8521 77.0667C41.6878 77.3312 41.3898 77.482 41.0793 77.4578C40.7688 77.4335 40.4978 77.2382 40.3766 76.9513L36.4601 67.6842ZM57.3639 31.091C58.0163 32.6683 57.97 34.4792 57.1493 36.1085C53.9435 42.4478 54.1783 41.0933 55.0271 48.146C55.3431 50.855 53.9073 53.3565 51.3969 54.422C44.868 57.2213 45.9155 56.3365 42.0325 62.2873C40.5424 64.563 37.8243 65.5563 35.2146 64.7617C28.4148 62.7118 29.7874 62.7118 22.9966 64.7617C20.3778 65.5563 17.6688 64.563 16.1786 62.2873C12.2866 56.3365 13.3431 57.2213 6.81428 54.422C4.30378 53.3565 2.85895 50.855 3.18412 48.146C4.02395 41.0933 4.26778 42.4478 1.06195 36.1085C-0.166215 33.6703 0.330451 30.8258 2.32628 28.9655C7.50062 24.0982 6.81428 25.2902 8.43062 18.373C9.05378 15.7182 11.2663 13.8668 13.9933 13.7133C21.0821 13.316 19.7908 13.7857 25.4799 9.53233C27.6653 7.89783 30.5459 7.89783 32.7313 9.53233C32.854 9.624 32.9733 9.7135 33.0896 9.80083C32.5174 11.5315 32.2076 13.381 32.2076 15.3023C32.2076 16.9858 32.4454 18.614 32.8891 20.1553C31.6708 19.8755 30.4028 19.7275 29.1011 19.7275C19.7728 19.7275 12.1603 27.3402 12.1603 36.6683C12.1603 45.9967 19.7728 53.6093 29.1011 53.6093C38.4384 53.6093 46.042 45.9967 46.042 36.6683C46.042 35.1627 45.8438 33.7017 45.4723 32.3102C46.8383 32.6522 48.2678 32.834 49.7391 32.834C52.4711 32.834 55.0579 32.2077 57.3639 31.091ZM29.5976 26.3237L32.1524 33.0445C32.2298 33.2487 32.4063 33.3755 32.6214 33.3865L39.8058 33.7397C40.2969 33.7618 40.4956 34.3798 40.1148 34.6833L34.5086 39.1913C34.3376 39.3238 34.2713 39.5335 34.3264 39.7432L36.2136 46.6847C36.3461 47.1537 35.8219 47.5345 35.4136 47.2697L29.3934 43.3298C29.2114 43.2083 28.9908 43.2083 28.8086 43.3298L22.7941 47.2697C22.3858 47.5345 21.8616 47.1537 21.9885 46.6847L23.8756 39.7432C23.9308 39.5335 23.8646 39.3238 23.6934 39.1913L18.0873 34.6833C17.7066 34.3798 17.9053 33.7618 18.3963 33.7397L25.5806 33.3865C25.7958 33.3755 25.9724 33.2487 26.0496 33.0445L28.6045 26.3237C28.7754 25.8657 29.4266 25.8657 29.5976 26.3237ZM49.7391 0.4375C57.9433 0.4375 64.604 7.09833 64.604 15.3023C64.604 23.5065 57.9433 30.1673 49.7391 30.1673C41.5351 30.1673 34.8743 23.5065 34.8743 15.3023C34.8743 7.09833 41.5351 0.4375 49.7391 0.4375ZM47.7255 16.6545L44.2961 13.2252C43.4078 12.337 41.9656 12.337 41.0773 13.2252C40.1891 14.118 40.1891 15.5557 41.0773 16.4438L46.1185 21.4895C47.0066 22.3778 48.4489 22.3778 49.3371 21.4895C52.3773 18.4493 55.3808 15.3772 58.4073 12.3232C59.291 11.4303 59.2865 9.99267 58.3981 9.109C57.51 8.22533 56.0676 8.23 55.184 9.11817L47.7255 16.6545Z" fill="url(#paint0_linear_572_1095)"/>
<defs>
<linearGradient id="paint0_linear_572_1095" x1="32.4997" y1="0.4375" x2="32.4997" y2="80.5625" gradientUnits="userSpaceOnUse">
<stop stop-color="#E83E8C"/>
<stop offset="1" stop-color="white"/>
</linearGradient>
</defs>
</svg>
