<svg width="85" height="85" viewBox="0 0 85 85" fill="none" xmlns="http://www.w3.org/2000/svg">
<path fill-rule="evenodd" clip-rule="evenodd" d="M42.4999 16.3923C35.5322 16.3923 29.8844 22.0401 29.8844 29.0078C29.8844 35.9755 35.5322 41.6217 42.4999 41.6217C49.4676 41.6217 55.1138 35.9738 55.1138 29.0078C55.1138 22.0418 49.4659 16.3923 42.4999 16.3923ZM66.9557 2.48018L68.1543 6.19229C68.1908 6.30352 68.2904 6.37656 68.4066 6.37656L72.308 6.36826C72.4242 6.36826 72.5238 6.43965 72.5603 6.55088C72.5969 6.66211 72.5587 6.77832 72.4641 6.84805L69.3031 9.13574C69.2085 9.20381 69.1703 9.32168 69.2068 9.43291L70.4187 13.1417C70.4553 13.2529 70.4187 13.3691 70.3225 13.4389C70.2278 13.5069 70.105 13.5069 70.0103 13.4389L66.8577 11.1396C66.7631 11.0698 66.6402 11.0698 66.5456 11.1396L63.393 13.4389C63.2983 13.5069 63.1755 13.5086 63.0809 13.4389C62.9862 13.3708 62.948 13.2529 62.9846 13.1417L64.1965 9.43291C64.233 9.32168 64.1948 9.20547 64.1002 9.13574L60.9393 6.84805C60.8446 6.77998 60.8064 6.66211 60.843 6.55088C60.8795 6.43965 60.9791 6.36826 61.0953 6.36826L64.9967 6.37656C65.1129 6.37656 65.2125 6.30518 65.249 6.19229L66.4477 2.48018C66.4842 2.36895 66.5821 2.2959 66.7 2.2959C66.8179 2.2959 66.9158 2.36895 66.9523 2.48018H66.9557ZM18.5488 2.48018L19.7475 6.19229C19.784 6.30352 19.8836 6.37656 19.9998 6.37656L23.9012 6.36826C24.0174 6.36826 24.117 6.43965 24.1535 6.55088C24.19 6.66211 24.1519 6.77832 24.0572 6.84805L20.8963 9.13574C20.8017 9.20381 20.7635 9.32168 20.8 9.43291L22.0119 13.1417C22.0484 13.2529 22.0119 13.3691 21.9156 13.4389C21.821 13.5069 21.6981 13.5069 21.6035 13.4389L18.4509 11.1396C18.3562 11.0698 18.2334 11.0698 18.1388 11.1396L14.9861 13.4389C14.8915 13.5069 14.7687 13.5086 14.674 13.4389C14.5794 13.3708 14.5412 13.2529 14.5777 13.1417L15.7896 9.43291C15.8262 9.32168 15.788 9.20547 15.6934 9.13574L12.5324 6.84805C12.4378 6.77998 12.3996 6.66211 12.4361 6.55088C12.4727 6.43965 12.5723 6.36826 12.6885 6.36826L16.5898 6.37656C16.7061 6.37656 16.8057 6.30518 16.8422 6.19229L18.0408 2.48018C18.0773 2.36895 18.1753 2.2959 18.2932 2.2959C18.411 2.2959 18.509 2.36895 18.5455 2.48018H18.5488ZM74.0263 24.4075L75.8773 30.1417C75.9321 30.3144 76.0865 30.4256 76.2675 30.4256L82.2922 30.414C82.4731 30.414 82.6259 30.5252 82.6823 30.6962C82.7388 30.8672 82.679 31.0481 82.5329 31.1544L77.652 34.6872C77.506 34.7935 77.4462 34.9744 77.5026 35.1454L79.3753 40.8713C79.4317 41.0423 79.3736 41.2232 79.2275 41.3295C79.0814 41.4357 78.8922 41.4357 78.7461 41.3295L73.8785 37.7784C73.7324 37.6722 73.5432 37.6722 73.3971 37.7784L68.5295 41.3295C68.3834 41.4357 68.1941 41.4357 68.048 41.3295C67.902 41.2232 67.8438 41.0423 67.9003 40.8713L69.7729 35.1454C69.8294 34.9744 69.7696 34.7935 69.6235 34.6872L64.7427 31.1544C64.5966 31.0481 64.5385 30.8688 64.5933 30.6962C64.6497 30.5252 64.8024 30.414 64.9834 30.414L71.0081 30.4256C71.1891 30.4256 71.3418 30.3144 71.3982 30.1417L73.2493 24.4075C73.3041 24.2365 73.4585 24.1236 73.6378 24.1236C73.8171 24.1236 73.9715 24.2349 74.0279 24.4075H74.0263ZM11.7521 24.4075L13.6032 30.1417C13.658 30.3144 13.8124 30.4256 13.9934 30.4256L20.0181 30.414C20.199 30.414 20.3518 30.5252 20.4082 30.6962C20.4646 30.8672 20.4049 31.0481 20.2588 31.1544L15.3779 34.6872C15.2318 34.7935 15.1721 34.9744 15.2285 35.1454L17.1012 40.8713C17.1576 41.0423 17.0995 41.2232 16.9534 41.3295C16.8073 41.4357 16.6181 41.4357 16.472 41.3295L11.6044 37.7784C11.4583 37.6722 11.269 37.6722 11.1229 37.7784L6.25537 41.3295C6.10928 41.4357 5.92002 41.4357 5.77392 41.3295C5.62783 41.2232 5.56973 41.0423 5.62617 40.8713L7.49883 35.1454C7.55527 34.9744 7.49551 34.7935 7.34941 34.6872L2.46855 31.1544C2.32246 31.0481 2.26435 30.8688 2.31914 30.6962C2.37558 30.5252 2.52832 30.414 2.70928 30.414L8.73398 30.4256C8.91494 30.4256 9.06767 30.3144 9.12412 30.1417L10.9752 24.4075C11.03 24.2365 11.1844 24.1236 11.3637 24.1236C11.543 24.1236 11.6974 24.2349 11.7538 24.4075H11.7521ZM42.4999 45.8385C41.6532 45.8518 40.8148 45.9032 39.9881 45.9912L40.8281 48.6043H44.17L45.0101 45.9912C44.1833 45.9016 43.3449 45.8501 42.4982 45.8385H42.4999ZM40.9609 50.6147L38.3296 67.7393L42.4982 71.9444L46.6669 67.7393L44.0355 50.6147H40.9576H40.9609ZM37.9776 46.2851L39.0717 49.6867L36.2677 67.9352C36.2212 68.2489 36.3274 68.5677 36.5499 68.7918L41.7927 74.0794C42.1845 74.4695 42.8203 74.4679 43.2104 74.0761L48.4018 68.8399C48.6491 68.6225 48.7836 68.2871 48.7305 67.9368L45.9265 49.6884L47.0205 46.2867C58.4789 48.3935 67.5035 57.6854 69.2035 69.2766C69.587 71.8979 68.5129 74.3483 66.3265 75.8425C59.0849 80.7881 48.4101 82.7039 42.4982 82.7039C36.5864 82.7039 25.9116 80.7881 18.67 75.8425C16.4819 74.3483 15.4078 71.8979 15.793 69.2766C17.493 57.6854 26.5176 48.3935 37.976 46.2867L37.9776 46.2851Z" fill="url(#paint0_linear_572_1099)"/>
<defs>
<linearGradient id="paint0_linear_572_1099" x1="42.5011" y1="2.2959" x2="42.5011" y2="82.7039" gradientUnits="userSpaceOnUse">
<stop stop-color="#E83E8C"/>
<stop offset="1" stop-color="white"/>
</linearGradient>
</defs>
</svg>
