<svg width="110" height="110" viewBox="0 0 110 110" fill="none" xmlns="http://www.w3.org/2000/svg">
<circle cx="55" cy="55" r="55" fill="#E83E8C"/>
<path fill-rule="evenodd" clip-rule="evenodd" d="M47.8833 32.8799C47.2121 32.8799 46.6665 33.4268 46.6665 34.0967C46.6665 34.7665 47.2135 35.3134 47.8833 35.3134C48.5531 35.3134 49.1 34.7665 49.1 34.0967C49.1 33.4268 48.5544 32.8799 47.8833 32.8799Z" fill="white"/>
<path d="M40.5063 35.3134C41.1783 35.3134 41.7231 34.7687 41.7231 34.0967C41.7231 33.4246 41.1783 32.8799 40.5063 32.8799C39.8343 32.8799 39.2896 33.4246 39.2896 34.0967C39.2896 34.7687 39.8343 35.3134 40.5063 35.3134Z" fill="white"/>
<path d="M33.1274 35.3134C33.7994 35.3134 34.3442 34.7687 34.3442 34.0967C34.3442 33.4246 33.7994 32.8799 33.1274 32.8799C32.4554 32.8799 31.9106 33.4246 31.9106 34.0967C31.9106 34.7687 32.4554 35.3134 33.1274 35.3134Z" fill="white"/>
<path fill-rule="evenodd" clip-rule="evenodd" d="M26.9976 33.1661V38.2168H84.0707V33.1661C84.0707 31.4064 82.6399 29.9756 80.8802 29.9756H30.1881C28.4284 29.9756 26.9976 31.4064 26.9976 33.1661ZM33.1276 36.6658C31.7101 36.6658 30.558 35.5138 30.558 34.0962C30.558 32.6786 31.7101 31.5266 33.1276 31.5266C34.5452 31.5266 35.6973 32.6786 35.6973 34.0962C35.6973 35.5138 34.5452 36.6658 33.1276 36.6658ZM40.5062 36.6658C39.0886 36.6658 37.9366 35.5138 37.9366 34.0962C37.9366 32.6786 39.0886 31.5266 40.5062 31.5266C41.9238 31.5266 43.0758 32.6786 43.0758 34.0962C43.0758 35.5138 41.9225 36.6658 40.5062 36.6658ZM47.8834 36.6658C46.4659 36.6658 45.3138 35.5138 45.3138 34.0962C45.3138 32.6786 46.4659 31.5266 47.8834 31.5266C49.301 31.5266 50.453 32.6786 50.453 34.0962C50.453 35.5138 49.301 36.6658 47.8834 36.6658ZM80.1654 34.7726H53.0359C52.662 34.7726 52.3595 34.4701 52.3595 34.0962C52.3595 33.7223 52.662 33.4198 53.0359 33.4198H80.1641C80.538 33.4198 80.8405 33.7223 80.8405 34.0962C80.8405 34.4701 80.538 34.7726 80.1654 34.7726Z" fill="white"/>
<path fill-rule="evenodd" clip-rule="evenodd" d="M26.9976 39.5693V67.3899C26.9976 69.1496 28.4284 70.5804 30.1881 70.5804H46.6561C46.5372 66.2431 45.3786 64.4583 44.2569 62.7276C43.1656 61.0471 42.0374 59.3071 42.0374 55.5366C42.0374 48.0933 48.0922 42.0372 55.5368 42.0372C62.9814 42.0372 69.0362 48.092 69.0362 55.5366C69.0362 59.3071 67.9079 61.0471 66.8167 62.7276C65.695 64.4569 64.5364 66.2431 64.4175 70.5804H80.8828C82.6426 70.5804 84.0734 69.1496 84.0734 67.3899V39.5693H26.9976Z" fill="white"/>
<path fill-rule="evenodd" clip-rule="evenodd" d="M57.3508 79.1289H53.7163V80.8173C53.7163 81.0366 53.8999 81.2203 54.1193 81.2203H56.9478C57.1671 81.2203 57.3508 81.0366 57.3508 80.8173V79.1289Z" fill="white"/>
<path fill-rule="evenodd" clip-rule="evenodd" d="M59.3693 75.6855H55.534H51.6987V77.374C51.6987 77.5919 51.8824 77.7769 52.1017 77.7769H53.0384H53.041H53.0437H58.027H58.0283H58.9676C59.1869 77.7769 59.3706 77.5933 59.3706 77.374V75.6855H59.3693Z" fill="white"/>
<path fill-rule="evenodd" clip-rule="evenodd" d="M56.2105 63.394V74.333H60.0431H60.0458H60.0471C61.7038 74.3317 63.0487 72.9854 63.0487 71.3287C63.0487 66.0415 64.4452 63.8907 65.6778 61.9909C66.7519 60.3355 67.6793 58.9074 67.6793 55.5372C67.6793 48.8403 62.2309 43.3906 55.5328 43.3906C48.8346 43.3906 43.3862 48.839 43.3862 55.5372C43.3862 58.9074 44.3137 60.3369 45.3878 61.9909C46.6204 63.8894 48.0168 66.0402 48.0168 71.3287C48.0168 72.9854 49.3644 74.333 51.0211 74.333H54.8564V63.394C52.111 63.1707 49.7422 61.6012 48.4092 59.35C48.3894 59.3209 48.3709 59.2905 48.3564 59.2601C47.6628 58.0526 47.2651 56.6562 47.2611 55.1673V55.1514V55.1501V55.1488C47.2611 53.6598 47.6575 52.2607 48.3497 51.0532C48.3682 51.0123 48.392 50.974 48.4171 50.937C49.8598 48.5087 52.51 46.8784 55.5328 46.8784C58.5516 46.8784 61.1965 48.5048 62.6418 50.9251C62.6749 50.9687 62.7026 51.0162 62.7251 51.0664C63.4054 52.2594 63.7965 53.6361 63.8044 55.1025C63.8057 55.1171 63.8057 55.1329 63.8057 55.1488C63.8057 55.1659 63.8057 55.1831 63.8031 55.2003C63.7939 56.6681 63.4015 58.046 62.7198 59.2403C62.7 59.2839 62.6762 59.3249 62.6484 59.3619C61.3154 61.6078 58.9506 63.1707 56.2105 63.394Z" fill="white"/>
<path fill-rule="evenodd" clip-rule="evenodd" d="M57.7391 59.6387H53.3291C53.9091 61.1619 54.7467 62.0682 55.5341 62.0682C56.3215 62.0669 57.1591 61.1619 57.7391 59.6387Z" fill="white"/>
<path fill-rule="evenodd" clip-rule="evenodd" d="M58.4656 55.8252H52.6011C52.6394 56.7209 52.753 57.548 52.9234 58.2865H58.1446C58.3137 57.548 58.4273 56.7209 58.4656 55.8252Z" fill="white"/>
<path fill-rule="evenodd" clip-rule="evenodd" d="M58.1446 52.0107H52.9234C52.7543 52.7493 52.6407 53.5763 52.6011 54.472H58.4656C58.4273 53.5763 58.3137 52.7506 58.1446 52.0107Z" fill="white"/>
<path fill-rule="evenodd" clip-rule="evenodd" d="M55.5341 48.2295C54.7467 48.2295 53.9091 49.1358 53.3291 50.6591H57.7391C57.1591 49.1358 56.3215 48.2295 55.5341 48.2295Z" fill="white"/>
<path fill-rule="evenodd" clip-rule="evenodd" d="M58.3311 48.8203C58.6547 49.3474 58.9361 49.9657 59.1647 50.658H60.7937C60.1252 49.8759 59.2836 49.2431 58.3311 48.8203Z" fill="white"/>
<path fill-rule="evenodd" clip-rule="evenodd" d="M59.5239 52.0107C59.6825 52.777 59.7855 53.604 59.8199 54.472H62.4199C62.334 53.5935 62.083 52.7625 61.6998 52.0107H59.5239Z" fill="white"/>
<path fill-rule="evenodd" clip-rule="evenodd" d="M59.8199 55.8252C59.7855 56.6932 59.6838 57.5202 59.5239 58.2865H61.6985C62.083 57.5347 62.334 56.7038 62.4185 55.8252H59.8199Z" fill="white"/>
<path fill-rule="evenodd" clip-rule="evenodd" d="M59.1658 59.6387C58.9373 60.3309 58.6572 60.9492 58.3335 61.4751C59.286 61.0523 60.125 60.4208 60.7935 59.6387H59.1658Z" fill="white"/>
<path fill-rule="evenodd" clip-rule="evenodd" d="M51.9025 59.6387H50.2749C50.9434 60.4208 51.7836 61.0523 52.7349 61.4751C52.4125 60.9479 52.1311 60.3296 51.9025 59.6387Z" fill="white"/>
<path fill-rule="evenodd" clip-rule="evenodd" d="M48.6484 55.8252C48.7343 56.7038 48.9853 57.5347 49.3685 58.2865H51.5444C51.3858 57.5202 51.2841 56.6932 51.2484 55.8252H48.6484Z" fill="white"/>
<path fill-rule="evenodd" clip-rule="evenodd" d="M49.3685 52.0107C48.984 52.7625 48.733 53.5935 48.6484 54.472H51.2484C51.2828 53.604 51.3858 52.777 51.5444 52.0107H49.3685Z" fill="white"/>
<path fill-rule="evenodd" clip-rule="evenodd" d="M52.7375 48.8203C51.785 49.2431 50.9434 49.8759 50.2749 50.658H51.9039C52.1324 49.9657 52.4138 49.3474 52.7375 48.8203Z" fill="white"/>
</svg>
