<svg width="34" height="34" viewBox="0 0 34 34" fill="none" xmlns="http://www.w3.org/2000/svg">
<path d="M29.2953 23.6642C27.2414 21.9075 25.1569 20.8434 23.1282 22.5974L21.9168 23.6576C21.0305 24.4271 19.3826 28.0228 13.0111 20.6934C6.64101 13.3733 10.4318 12.2336 11.3194 11.4706L12.5374 10.4092C14.5555 8.65112 13.7939 6.43797 12.3384 4.1598L11.4601 2.7799C9.99789 0.507042 8.40569 -0.985641 6.38228 0.769754L5.28897 1.72507C4.39469 2.37654 1.89494 4.49416 1.28858 8.51711C0.558826 13.3441 2.86087 18.8717 8.13502 24.9366C13.4025 31.0042 18.5599 34.0519 23.4453 33.9989C27.5054 33.9551 29.9574 31.7764 30.7243 30.9843L31.8216 30.0277C33.8397 28.2736 32.5858 26.4877 30.5306 24.727L29.2953 23.6642Z" fill="white"/>
</svg>
