<svg width="110" height="110" viewBox="0 0 110 110" fill="none" xmlns="http://www.w3.org/2000/svg">
<circle cx="55" cy="55" r="55" fill="#E83E8C"/>
<path d="M86.3335 62.3488C86.3335 62.6192 86.2104 62.8744 85.9983 63.0433L77.9013 69.5039C77.7413 69.6321 77.5445 69.6981 77.3465 69.6981C77.2157 69.6981 77.0837 69.6689 76.9618 69.6093C76.6533 69.4607 76.4578 69.1497 76.4578 68.8082V66.2679H69.0615C69.2685 65.9898 69.4614 65.7017 69.6406 65.4033C69.8183 65.1063 69.9808 64.8016 70.1281 64.4905C70.1522 64.4423 70.1738 64.3928 70.1966 64.3445C72.2875 64.1757 74.1144 62.8579 74.9269 60.8952C75.0196 60.6718 75.0983 60.4433 75.1618 60.2109C75.2912 59.7336 75.3573 59.241 75.3573 58.7396C75.3573 58.6355 75.3547 58.5326 75.3484 58.4336H76.4579V55.8895C76.4579 55.5479 76.6534 55.2369 76.9619 55.0884C77.2692 54.9398 77.6348 54.9817 77.9014 55.1938L85.9985 61.6544C86.2104 61.8232 86.3335 62.0784 86.3335 62.3488ZM51.25 65.4071C51.0723 65.1088 50.9085 64.8041 50.76 64.4905C50.7358 64.4423 50.7143 64.394 50.6914 64.3445C48.6005 64.1757 46.7736 62.8579 45.9573 60.8927C45.8646 60.6692 45.7859 60.442 45.7237 60.2109C45.5942 59.7349 45.5282 59.2423 45.5282 58.7396C45.5282 58.6355 45.5308 58.5326 45.5384 58.4336H25.5547C25.0646 58.4336 24.666 58.831 24.666 59.3223V65.3792C24.666 65.8705 25.0646 66.2679 25.5547 66.2679H51.8264C51.6207 65.9911 51.4277 65.7029 51.25 65.4071ZM31.3044 50.8443L40.0959 56.6601C40.3257 56.8111 40.6113 56.8479 40.8716 56.7603C41.1318 56.6715 41.3375 56.4684 41.4264 56.2081L44.8706 46.2474C44.9811 45.9274 44.8998 45.5707 44.6611 45.3308C44.4225 45.0896 44.0657 45.0058 43.7458 45.1149L41.0442 46.0303C41.0227 45.7142 41.0112 45.3955 41.0112 45.0794C41.0112 37.7148 47.0009 31.7239 54.3629 31.7239C60.7347 31.7239 66.0781 36.2092 67.401 42.1899C67.8847 42.4845 68.3531 42.8107 68.8063 43.1675C69.0184 43.3338 69.2266 43.5077 69.4297 43.6893C69.9223 44.1234 70.3831 44.5957 70.8071 45.0959C71.8964 46.3743 72.7368 47.8241 73.298 49.3806C73.6496 50.3556 73.8921 51.3725 74.0178 52.4147C74.0368 52.5722 74.0533 52.7309 74.0673 52.8895C75.0474 50.4216 75.5552 47.7784 75.5552 45.0794C75.5552 33.3959 66.0477 23.8896 54.3629 23.8896C42.6781 23.8896 33.1731 33.3959 33.1731 45.0794C33.1731 46.2601 33.2709 47.4395 33.4651 48.5973L31.5101 49.2612C31.1889 49.3704 30.9565 49.6522 30.9134 49.9887C30.8702 50.3251 31.0213 50.6564 31.3044 50.8443ZM69.7356 62.5862H68.9727C68.7606 63.2591 68.4712 63.8964 68.1157 64.4905C67.7247 65.1405 67.255 65.7372 66.7167 66.2679C66.4158 66.5662 66.0921 66.8417 65.7506 67.0943C65.7493 67.0943 65.7493 67.0956 65.7493 67.0956C65.4865 67.2886 65.2161 67.4688 64.933 67.6339C63.6127 68.4032 62.0791 68.845 60.4439 68.845C58.6514 68.845 56.9807 68.3144 55.5791 67.4016C55.4953 67.347 55.4115 67.2911 55.329 67.2327C55.3277 67.2314 55.3265 67.2302 55.3239 67.2289C54.905 66.9344 54.5089 66.6043 54.1471 66.2437C53.6202 65.7194 53.1581 65.1304 52.7734 64.4905C52.4167 63.8964 52.1285 63.2591 51.9165 62.5862H51.1522C49.5526 62.5862 48.1777 61.6049 47.5988 60.2109C47.4097 59.7577 47.3056 59.2601 47.3056 58.7396C47.3056 58.6367 47.3094 58.5339 47.3183 58.4336C47.3855 57.583 47.7309 56.8111 48.2615 56.2081C48.1371 55.5111 48.0749 54.8015 48.0749 54.0931C48.0749 47.4039 53.5187 41.9627 60.2104 41.9627C63.0363 41.9627 65.6414 42.9352 67.7057 44.5627C68.343 45.0629 68.9282 45.6266 69.45 46.2436C70.9544 48.0095 71.9611 50.2096 72.2531 52.628C72.3115 53.1079 72.342 53.5967 72.342 54.0931C72.342 54.6707 72.3014 55.2458 72.2188 55.8107C72.3128 55.8895 72.4029 55.9732 72.488 56.0621C73.0974 56.6842 73.4947 57.5132 73.5671 58.4336C73.576 58.5339 73.5798 58.6367 73.5798 58.7396C73.5798 59.2601 73.4757 59.7577 73.2865 60.2109C72.7089 61.6049 71.3353 62.5862 69.7356 62.5862ZM51.5496 60.8089C51.5204 60.5118 51.5052 60.2097 51.5052 59.905V56.674H51.1522C50.6584 56.674 50.2026 56.8479 49.8472 57.1387C49.8154 57.1641 49.7837 57.1907 49.7545 57.2187C49.3419 57.5957 49.0829 58.1378 49.0829 58.7396C49.0829 58.8741 49.0956 59.0061 49.121 59.1331C49.1223 59.1407 49.1235 59.1483 49.1248 59.156C49.1261 59.1585 49.1261 59.1598 49.1261 59.1623C49.3216 60.1018 50.1557 60.8089 51.1522 60.8089H51.5496ZM67.6054 55.8666C67.5787 55.8679 67.552 55.8679 67.5267 55.8679C65.5551 55.8679 63.8933 54.4244 63.1189 52.741C60.623 54.6631 57.326 55.8996 54.5317 55.8996C54.1115 55.8996 53.6938 55.8742 53.2825 55.8234V59.905C53.2825 63.8545 56.4957 67.0664 60.4439 67.0664C64.3935 67.0664 67.6054 63.8545 67.6054 59.905V55.8666ZM69.3383 60.8089H69.7356C70.7322 60.8089 71.5663 60.0979 71.7592 59.156C71.7604 59.1521 71.7604 59.1471 71.7618 59.1433C71.7872 59.0125 71.8012 58.8779 71.8012 58.7396C71.8012 58.002 71.4127 57.3545 70.83 56.9889C70.8071 56.9736 70.7843 56.9597 70.7602 56.947C70.458 56.773 70.1089 56.674 69.7356 56.674H69.3827V59.905C69.3827 60.2097 69.3675 60.5118 69.3383 60.8089ZM66.3117 68.7904L62.7659 71.8665L64.5039 75.6256C64.5179 75.6573 64.5229 75.6624 64.5585 75.6675C64.5979 75.6726 64.6017 75.6726 64.6232 75.6472C64.6245 75.6446 64.6259 75.6434 64.627 75.6421L69.0742 70.305C69.0958 70.2796 69.0958 70.2732 69.0907 70.2428C69.0831 70.2072 69.0806 70.206 69.0552 70.192L66.4158 68.779C66.3701 68.7549 66.3409 68.765 66.3117 68.7904ZM54.3604 68.7803L51.7261 70.1894C51.6969 70.206 51.6956 70.2098 51.6918 70.2313C51.6829 70.2783 51.6854 70.2809 51.702 70.3012L56.1504 75.6421C56.1771 75.6738 56.1859 75.6726 56.2126 75.6687C56.2507 75.6637 56.2596 75.6624 56.2773 75.6243L58.0141 71.8665L54.4708 68.793C54.4403 68.765 54.4111 68.7536 54.3604 68.7803ZM70.4263 71.4603L65.9943 76.7783C65.6363 77.2125 65.1349 77.4486 64.5902 77.4486C64.5026 77.4486 64.4138 77.4423 64.3236 77.4296C64.137 77.4055 63.9605 77.356 63.7968 77.2811L65.7811 87.111H76.9834C78.8115 87.111 80.2981 85.6244 80.2981 83.7976V82.8264C79.5021 79.6271 78.9486 77.5527 78.0714 75.8782C77.1205 74.0691 74.5421 72.9977 70.4263 71.4603ZM56.4475 77.4309C56.3599 77.4436 56.2735 77.4486 56.1885 77.4486C55.6502 77.4486 55.1462 77.2138 54.7844 76.7809C54.7844 76.7809 54.7844 76.7809 54.7844 76.7796L50.3804 71.492C46.3039 73.0129 43.756 74.0895 42.8165 75.8795C41.9443 77.5451 41.387 79.6221 40.5872 82.8264V83.7976C40.5872 85.6244 42.0751 87.111 43.9045 87.111H55.1043L57.0746 77.2353C56.8842 77.3356 56.6722 77.4017 56.4475 77.4309ZM60.9454 78.9099C60.7791 79.052 60.5734 79.1219 60.369 79.1219C60.1443 79.1219 59.9209 79.0381 59.7482 78.8705L58.7555 77.9044L56.9185 87.111H63.9682L62.1108 77.9158L60.9454 78.9099ZM58.4609 75.1355L60.4084 77.0322L62.4079 75.3272L61.1105 72.5229H59.6695L58.4609 75.1355Z" fill="white"/>
</svg>
