<svg width="85" height="85" viewBox="0 0 85 85" fill="none" xmlns="http://www.w3.org/2000/svg">
<path d="M74.5209 4.89551H36.753C35.614 4.89551 34.6904 5.81905 34.6904 6.95809V18.113C37.2188 19.1909 39.3457 21.1519 40.5795 23.6921L43.6725 30.0603L53.9491 29.3943C57.0189 29.195 59.7563 31.1182 60.691 33.9275C60.9088 34.0196 61.1224 34.1186 61.3306 34.2253V30.4134H74.5209C75.6599 30.4134 76.5835 29.4899 76.5835 28.3509V6.95809C76.5835 5.81905 75.6601 4.89551 74.5209 4.89551ZM57.8091 18.7684C57.9054 18.2588 57.7568 17.7117 57.3624 17.3171C56.7283 16.6831 55.7004 16.6831 55.0664 17.3171C54.4323 17.9511 54.4323 18.9789 55.0664 19.6131C55.461 20.0077 56.008 20.1563 56.5178 20.0599L61.1028 24.6449L52.5909 21.0555C52.2972 20.9316 52.1065 20.6441 52.1065 20.3253V19.5055C52.1065 18.29 51.6235 17.1241 50.7639 16.2643L48.6392 14.1396C48.4639 13.9643 48.4639 13.6799 48.6392 13.5046L51.254 10.8898C51.4293 10.7145 51.7137 10.7145 51.889 10.8898L54.0137 13.0145C54.8733 13.8741 56.0392 14.3571 57.2549 14.3571H58.0747C58.3933 14.3571 58.6809 14.548 58.8047 14.8415L62.394 23.353L57.8091 18.7684Z" fill="url(#paint0_linear_572_1104)"/>
<path d="M22.4254 2.89282C18.4618 2.89282 15.2485 6.10589 15.2485 10.0697C15.2485 14.0554 18.4887 17.2465 22.4254 17.2465C26.3615 17.2465 29.6022 14.0554 29.6022 10.0697C29.6022 6.10589 26.389 2.89282 22.4254 2.89282Z" fill="url(#paint1_linear_572_1104)"/>
<path d="M42.896 50.5867H35.9978C37.7309 51.2813 38.9586 52.9771 38.9586 54.9554V59.214C38.9586 60.499 38.4404 61.6647 37.6026 62.5147L35.5061 77.3705C35.1855 79.6429 36.7678 81.745 39.0401 82.0657C41.3176 82.3861 43.4153 80.8 43.7353 78.5317L47.0103 55.3224C47.3634 52.8211 45.4181 50.5867 42.896 50.5867Z" fill="url(#paint2_linear_572_1104)"/>
<path d="M34.2532 53.0238C28.104 53.0238 27.9041 53.0238 25.1756 53.0238V31.4871C25.1756 28.9799 23.1432 26.9478 20.6362 26.9478H4.53936C2.03236 26.9476 0 28.9799 0 31.4871V56.6066C0 59.1138 2.03236 61.146 4.53936 61.146C5.72189 61.146 14.1394 61.146 15.3652 61.146C15.3652 62.4165 15.3652 70.0532 15.3652 71.3179L3.11644 78.2806C2.13363 78.8393 1.78981 80.0887 2.34846 81.0715C2.90727 82.0541 4.15653 82.3985 5.13968 81.8395L15.8772 75.7359V77.3164C15.8772 78.4468 16.7936 79.3632 17.924 79.3632C19.0544 79.3632 19.9708 78.4468 19.9708 77.3164V75.7359L25.5599 78.913C25.9937 80.7445 27.6384 82.1074 29.6024 82.1074C31.8974 82.1074 33.7578 80.2471 33.7578 77.9521V63.9199H25.447V74.14L20.4825 71.3181C20.4825 70.0535 20.4825 62.4165 20.4825 61.1461C25.4743 61.1461 22.1735 61.1461 34.2532 61.1461C35.32 61.1461 36.1848 60.2812 36.1848 59.2146V54.9559C36.1849 53.8909 35.3197 53.0238 34.2532 53.0238Z" fill="url(#paint3_linear_572_1104)"/>
<path d="M82.2261 41.2993C79.3104 41.2993 65.1746 41.2993 62.5944 41.2993C62.667 41.014 62.7033 40.7285 62.7033 40.4433C62.7033 38.2066 60.5692 36.3986 57.8374 35.9863C57.8097 33.967 56.1039 32.4498 54.1553 32.5771L41.7397 33.3818L37.7102 25.0855C36.3205 22.2247 33.3679 20.376 30.1872 20.376C14.5458 20.376 13.8597 20.376 13.1593 20.376C10.2665 20.376 7.71497 21.8915 6.25586 24.1736H20.6361C24.6692 24.1736 27.9493 27.4549 27.9493 31.4867V50.2498H31.6817V46.8467C32.6259 46.8467 74.2753 46.8467 74.7979 46.8467V79.5486C74.7979 80.9617 75.9434 82.1071 77.3565 82.1071C78.7697 82.1071 79.9152 80.9615 79.9152 79.5486V46.8468H82.2261C83.7579 46.8468 84.9999 45.6049 84.9999 44.073C84.9999 42.5412 83.7579 41.2993 82.2261 41.2993ZM31.6817 41.2993C31.6817 39.5724 31.6817 30.5101 31.6817 28.5255L36.5267 38.5009C37.1394 39.7626 38.4562 40.5348 39.8656 40.4434L50.6295 39.7457C50.5251 40.2537 50.5337 40.7743 50.6672 41.2991C48.2127 41.2993 34.3525 41.2993 31.6817 41.2993Z" fill="url(#paint4_linear_572_1104)"/>
<defs>
<linearGradient id="paint0_linear_572_1104" x1="55.637" y1="4.89551" x2="55.637" y2="34.2253" gradientUnits="userSpaceOnUse">
<stop stop-color="#E83E8C"/>
<stop offset="1" stop-color="white"/>
</linearGradient>
<linearGradient id="paint1_linear_572_1104" x1="22.4254" y1="2.89282" x2="22.4254" y2="17.2465" gradientUnits="userSpaceOnUse">
<stop stop-color="#E83E8C"/>
<stop offset="1" stop-color="white"/>
</linearGradient>
<linearGradient id="paint2_linear_572_1104" x1="41.2583" y1="50.5867" x2="41.2583" y2="82.1069" gradientUnits="userSpaceOnUse">
<stop stop-color="#E83E8C"/>
<stop offset="1" stop-color="white"/>
</linearGradient>
<linearGradient id="paint3_linear_572_1104" x1="18.0924" y1="26.9478" x2="18.0924" y2="82.1074" gradientUnits="userSpaceOnUse">
<stop stop-color="#E83E8C"/>
<stop offset="1" stop-color="white"/>
</linearGradient>
<linearGradient id="paint4_linear_572_1104" x1="45.6279" y1="20.376" x2="45.6279" y2="82.1071" gradientUnits="userSpaceOnUse">
<stop stop-color="#E83E8C"/>
<stop offset="1" stop-color="white"/>
</linearGradient>
</defs>
</svg>
