<svg width="110" height="110" viewBox="0 0 110 110" fill="none" xmlns="http://www.w3.org/2000/svg">
<circle cx="55" cy="55" r="55" fill="#E83E8C"/>
<path d="M80.1163 30.8836C88.4611 39.2283 88.4612 52.7578 80.1165 61.1025C71.7717 69.4473 58.2421 69.4475 49.8974 61.1028C41.5527 52.7581 41.5524 39.2285 49.8972 30.8837C58.2419 22.539 71.7716 22.5389 80.1163 30.8836Z" fill="white"/>
<path d="M38.1605 46.6538C30.9296 53.8848 30.9296 65.6085 38.1605 72.8395C45.3915 80.0704 57.1151 80.0705 64.3462 72.8395C64.3939 72.7907 64.4438 72.7392 64.4925 72.6882C64.8547 72.3099 64.7203 72.0903 64.2069 72.1916C57.3641 73.5372 49.9853 71.5704 44.7053 66.2903C39.4197 61.0047 37.4569 53.6197 38.815 46.7754C38.9163 46.262 38.7008 46.13 38.3265 46.4962C38.2696 46.5519 38.2186 46.6024 38.1647 46.6563L38.1605 46.6538Z" fill="white"/>
<path d="M29.0127 60.8014C23.1625 66.6517 23.1624 76.1372 29.0127 81.9875C34.863 87.8378 44.3484 87.8378 50.1988 81.9875C50.2306 81.955 50.2703 81.9142 50.3029 81.8807C50.6061 81.5674 50.4945 81.3865 50.067 81.4694C44.5364 82.55 38.5763 80.9571 34.3098 76.6906C30.0388 72.4196 28.4494 66.4544 29.54 60.9228C29.6245 60.4954 29.4451 60.3868 29.136 60.6941C29.0956 60.7343 29.0554 60.7744 29.0199 60.8099L29.0127 60.8014Z" fill="white"/>
</svg>
