<svg width="37" height="37" viewBox="0 0 37 37" fill="none" xmlns="http://www.w3.org/2000/svg">
<circle cx="18.5" cy="18.5" r="18.5" fill="white"/>
<path d="M27.25 15.4941C27.2483 15.5921 27.2272 15.6888 27.1875 15.7783C27.1489 15.8655 27.0922 15.9429 27.0234 16.0088L27.0244 16.0098L19.0117 24.0332L18.9014 24.125C18.8618 24.1518 18.8197 24.1748 18.7754 24.1934C18.6865 24.2306 18.5905 24.25 18.4941 24.25C18.3979 24.25 18.3027 24.2305 18.2139 24.1934C18.1254 24.1563 18.046 24.1014 17.9785 24.0332L17.9775 24.0342L9.96973 16.0127C9.89956 15.9451 9.84335 15.8643 9.80566 15.7744C9.76808 15.6848 9.75016 15.5884 9.75098 15.4912C9.75215 15.2981 9.82924 15.114 9.96582 14.9775L9.96484 14.9766C10.0325 14.9084 10.1135 14.8544 10.2021 14.8174C10.2909 14.7804 10.3863 14.7608 10.4824 14.7607C10.5786 14.7607 10.6739 14.7804 10.7627 14.8174C10.8514 14.8544 10.9323 14.9083 11 14.9766L18.4951 22.4824L25.9912 14.9756L25.9922 14.9766C26.0579 14.9078 26.1357 14.8512 26.2227 14.8125C26.3122 14.7727 26.4089 14.7517 26.5068 14.75C26.6048 14.7484 26.7021 14.767 26.793 14.8037C26.8839 14.8405 26.9668 14.8954 27.0361 14.9648C27.1052 15.0341 27.1596 15.1164 27.1963 15.207C27.233 15.298 27.2516 15.3961 27.25 15.4941Z" fill="#292929" stroke="#292929" stroke-width="0.5"/>
</svg>
