<svg width="37" height="37" viewBox="0 0 37 37" fill="none" xmlns="http://www.w3.org/2000/svg">
<circle cx="18.5" cy="18.5" r="18.5" transform="matrix(1 0 0 -1 0 37)" fill="#2F2FB0"/>
<path d="M27.25 21.5059C27.2483 21.4079 27.2272 21.3112 27.1875 21.2217C27.1489 21.1345 27.0922 21.0571 27.0234 20.9912L27.0244 20.9902L19.0117 12.9668L18.9014 12.875C18.8618 12.8482 18.8197 12.8252 18.7754 12.8066C18.6865 12.7694 18.5905 12.75 18.4941 12.75C18.3979 12.75 18.3027 12.7695 18.2139 12.8066C18.1254 12.8437 18.046 12.8986 17.9785 12.9668L17.9775 12.9658L9.96973 20.9873C9.89956 21.0549 9.84335 21.1357 9.80566 21.2256C9.76808 21.3152 9.75016 21.4116 9.75098 21.5088C9.75215 21.7019 9.82924 21.886 9.96582 22.0225L9.96484 22.0234C10.0325 22.0916 10.1135 22.1456 10.2021 22.1826C10.2909 22.2196 10.3863 22.2392 10.4824 22.2393C10.5786 22.2393 10.6739 22.2196 10.7627 22.1826C10.8514 22.1456 10.9323 22.0917 11 22.0234L18.4951 14.5176L25.9912 22.0244L25.9922 22.0234C26.0579 22.0922 26.1357 22.1488 26.2227 22.1875C26.3122 22.2273 26.4089 22.2483 26.5068 22.25C26.6048 22.2516 26.7021 22.233 26.793 22.1963C26.8839 22.1595 26.9668 22.1046 27.0361 22.0352C27.1052 21.9659 27.1596 21.8836 27.1963 21.793C27.233 21.702 27.2516 21.6039 27.25 21.5059Z" fill="white" stroke="white" stroke-width="0.5"/>
</svg>
