<svg width="85" height="85" viewBox="0 0 85 85" fill="none" xmlns="http://www.w3.org/2000/svg">
<path fill-rule="evenodd" clip-rule="evenodd" d="M19.8022 39.8569V53.0203H40.7435V35.7414C39.6112 34.5378 38.0407 33.8521 36.3839 33.8521H34.5046L31.9712 38.4574C31.7952 38.7745 31.4599 38.9721 31.0946 38.9721C30.7311 38.9721 30.4007 38.7745 30.2247 38.4574L27.6847 33.8521H25.8054C22.4967 33.8521 19.8022 36.5466 19.8022 39.8569ZM64.8987 79.0433L66.8859 71.6157C64.6281 71.5045 62.4998 70.9085 60.5989 69.9273L58.6051 77.3582L61.7179 75.708C62.1761 75.464 62.7488 75.6167 63.0244 76.06L64.8987 79.0433ZM74.7086 69.9273C72.9571 70.8305 71.0164 71.4065 68.9611 71.5792L68.6856 72.6035L70.4105 79.0433L72.2765 76.06C72.5521 75.6184 73.1248 75.464 73.5897 75.7097L76.6958 77.3582L74.7086 69.9273ZM67.6546 45.0482C73.7856 45.0482 78.7793 50.0387 78.7793 56.1746C78.7793 62.3105 73.7872 67.3026 67.6546 67.3026C61.517 67.3026 56.5232 62.3105 56.5232 56.1746C56.5232 50.0387 61.5153 45.0482 67.6546 45.0482ZM81.1168 56.1746C81.1168 48.7487 75.0788 42.7074 67.6546 42.7074C60.2287 42.7074 54.1857 48.7487 54.1857 56.1746C54.1857 63.6005 60.2304 69.6418 67.6546 69.6418C75.0788 69.6418 81.1168 63.6005 81.1168 56.1746ZM67.6546 47.0404C62.6144 47.0404 58.5188 51.1377 58.5188 56.1746C58.5188 61.2115 62.616 65.3104 67.6546 65.3104C72.6882 65.3104 76.7838 61.2115 76.7838 56.1746C76.7838 51.1377 72.6882 47.0404 67.6546 47.0404ZM53.7873 26.7766H51.0846C46.4826 26.7766 42.7356 30.5202 42.7356 35.1205V53.0203H52.5123C53.9749 46.0028 60.2071 40.7152 67.6529 40.7152C69.7348 40.7152 71.7286 41.1319 73.5415 41.884V35.1205C73.5415 30.5202 69.8012 26.7766 65.1992 26.7766H62.4898L59.0135 33.0918C58.8375 33.4105 58.5022 33.6081 58.1369 33.6081C57.7733 33.6081 57.443 33.4105 57.267 33.0918L53.7873 26.7766ZM50.0287 12.5922C50.0287 17.0646 53.6678 20.7037 58.1419 20.7037C62.616 20.7037 66.2551 17.0646 66.2551 12.5922C66.2551 8.11807 62.616 4.479 58.1419 4.479C53.6661 4.479 50.0287 8.11807 50.0287 12.5922ZM12.2685 44.336C11.9049 44.336 11.5745 44.1385 11.3985 43.8214L9.80147 40.9294H8.74395C6.72852 40.9294 5.08496 42.573 5.08496 44.5917V53.0203H17.8067V41.5453C17.2074 41.1469 16.5135 40.9294 15.7913 40.9294H14.7338L13.1434 43.8214C12.9624 44.1385 12.632 44.336 12.2685 44.336ZM15.8195 33.3558C15.8195 31.3984 14.2225 29.808 12.2685 29.808C10.3145 29.808 8.72402 31.3984 8.72402 33.3558C8.72402 35.3114 10.3145 36.9019 12.2685 36.9019C14.2225 36.9019 15.8195 35.3114 15.8195 33.3558ZM25.2658 22.9731C25.2658 26.1872 27.8806 28.8036 31.0946 28.8036C34.3087 28.8036 36.9234 26.1872 36.9234 22.9731C36.9234 19.7591 34.3087 17.1443 31.0946 17.1443C27.8806 17.1443 25.2658 19.7591 25.2658 22.9731Z" fill="url(#paint0_linear_572_1089)"/>
<defs>
<linearGradient id="paint0_linear_572_1089" x1="43.1009" y1="4.479" x2="43.1009" y2="79.0433" gradientUnits="userSpaceOnUse">
<stop stop-color="#E83E8C"/>
<stop offset="1" stop-color="white"/>
</linearGradient>
</defs>
</svg>
