<svg width="26" height="32" viewBox="0 0 26 32" fill="none" xmlns="http://www.w3.org/2000/svg">
<path fill-rule="evenodd" clip-rule="evenodd" d="M13 0.771484C7.72575 0.771484 3.4375 5.09798 3.4375 10.4346C3.4375 12.2422 4.23367 14.4848 5.3925 16.7217C7.94392 21.6475 12.1939 26.6087 12.1939 26.6087C12.3951 26.8438 12.6897 26.9798 13 26.9798C13.3102 26.9798 13.6049 26.8438 13.8061 26.6087C13.8061 26.6087 18.0561 21.6475 20.6075 16.7217C21.7663 14.4848 22.5625 12.2422 22.5625 10.4346C22.5625 5.09798 18.2743 0.771484 13 0.771484ZM13 6.43815C10.8495 6.43815 9.10417 8.18348 9.10417 10.334C9.10417 12.4845 10.8495 14.2298 13 14.2298C15.1505 14.2298 16.8958 12.4845 16.8958 10.334C16.8958 8.18348 15.1505 6.43815 13 6.43815Z" fill="white"/>
<path fill-rule="evenodd" clip-rule="evenodd" d="M19.7772 23.618C20.9289 23.9636 21.8781 24.3914 22.534 24.8929C22.959 25.2159 23.2707 25.5319 23.2707 25.9172C23.2707 26.1439 23.1418 26.3493 22.9604 26.5547C22.6601 26.8933 22.2138 27.1979 21.6613 27.4812C19.7092 28.4799 16.5528 29.1047 12.9998 29.1047C9.44684 29.1047 6.2905 28.4799 4.33834 27.4812C3.78584 27.1979 3.33959 26.8933 3.03925 26.5547C2.85792 26.3493 2.729 26.1439 2.729 25.9172C2.729 25.5319 3.04067 25.2159 3.46567 24.8929C4.12159 24.3914 5.07075 23.9636 6.2225 23.618C6.7835 23.4494 7.10225 22.8558 6.93367 22.2948C6.76509 21.7324 6.1715 21.4136 5.6105 21.5822C3.85667 22.1106 2.49384 22.8345 1.675 23.6349C0.955337 24.3362 0.604004 25.121 0.604004 25.9172C0.604004 26.9117 1.16642 27.9034 2.30967 28.7307C4.31567 30.1814 8.34467 31.2297 12.9998 31.2297C17.655 31.2297 21.684 30.1814 23.69 28.7307C24.8333 27.9034 25.3957 26.9117 25.3957 25.9172C25.3957 25.121 25.0443 24.3362 24.3247 23.6349C23.5058 22.8345 22.143 22.1106 20.3892 21.5822C19.8282 21.4136 19.2346 21.7324 19.066 22.2948C18.8974 22.8558 19.2162 23.4494 19.7772 23.618Z" fill="white"/>
</svg>
