<svg width="34" height="34" viewBox="0 0 34 34" fill="none" xmlns="http://www.w3.org/2000/svg">
<path d="M19.8415 20.8311C18.9956 21.395 18.013 21.6931 17 21.6931C15.987 21.6931 15.0045 21.395 14.1586 20.8311L0.226379 11.5427C0.149082 11.4911 0.0737773 11.4374 0 11.3821V26.6023C0 28.3473 1.41611 29.7322 3.12993 29.7322H30.87C32.615 29.7322 33.9999 28.3161 33.9999 26.6023V11.3821C33.926 11.4375 33.8506 11.4913 33.7731 11.5429L19.8415 20.8311Z" fill="#E83E8C"/>
<path d="M1.33145 9.88502L15.2637 19.1735C15.7911 19.5251 16.3955 19.7009 16.9999 19.7009C17.6044 19.7009 18.2089 19.5251 18.7363 19.1735L32.6686 9.88502C33.5023 9.32953 34 8.39984 34 7.39644C34 5.67114 32.5964 4.26758 30.8711 4.26758H3.12886C1.40363 4.26764 0 5.67121 0 7.3981C0 8.39984 0.497781 9.32953 1.33145 9.88502Z" fill="#E83E8C"/>
</svg>
