<svg width="110" height="110" viewBox="0 0 110 110" fill="none" xmlns="http://www.w3.org/2000/svg">
<circle cx="55" cy="55" r="55" fill="#E83E8C"/>
<path d="M85.9688 65.6562H81.9062V55.5C81.9062 54.3787 80.9963 53.4688 79.875 53.4688H57.5312V45.3438H61.5938C62.715 45.3438 63.625 44.4338 63.625 43.3125V31.125C63.625 30.0038 62.715 29.0938 61.5938 29.0938H49.4062C48.285 29.0938 47.375 30.0038 47.375 31.125V43.3125C47.375 44.4338 48.285 45.3438 49.4062 45.3438H53.4688V53.4688H31.125C30.0037 53.4688 29.0938 54.3787 29.0938 55.5V65.6562H25.0312C23.91 65.6562 23 66.5662 23 67.6875V79.875C23 80.9963 23.91 81.9062 25.0312 81.9062H37.2188C38.34 81.9062 39.25 80.9963 39.25 79.875V67.6875C39.25 66.5662 38.34 65.6562 37.2188 65.6562H33.1562V57.5312H53.4688V65.6562H49.4062C48.285 65.6562 47.375 66.5662 47.375 67.6875V79.875C47.375 80.9963 48.285 81.9062 49.4062 81.9062H61.5938C62.715 81.9062 63.625 80.9963 63.625 79.875V67.6875C63.625 66.5662 62.715 65.6562 61.5938 65.6562H57.5312V57.5312H77.8438V65.6562H73.7812C72.66 65.6562 71.75 66.5662 71.75 67.6875V79.875C71.75 80.9963 72.66 81.9062 73.7812 81.9062H85.9688C87.09 81.9062 88 80.9963 88 79.875V67.6875C88 66.5662 87.09 65.6562 85.9688 65.6562Z" fill="white"/>
</svg>
