<svg width="85" height="85" viewBox="0 0 85 85" fill="none" xmlns="http://www.w3.org/2000/svg">
<path fill-rule="evenodd" clip-rule="evenodd" d="M63.6614 34.4759H74.7511C75.2083 34.4759 75.5812 34.8488 75.5812 35.306V38.327C75.5812 38.7842 75.2083 39.157 74.7511 39.157H63.6614C63.2042 39.157 62.8313 38.7842 62.8313 38.327V35.306C62.8313 34.8488 63.2042 34.4759 63.6614 34.4759ZM51.5932 7.74788L53.0691 11.6351C53.1134 11.752 53.2167 11.8271 53.3416 11.833L57.4948 12.0354C57.7772 12.0492 57.8929 12.405 57.6724 12.5821L54.4314 15.187C54.334 15.2654 54.2946 15.3868 54.3274 15.5073L55.4182 19.5197C55.4925 19.7926 55.1898 20.0125 54.9532 19.8576L51.4742 17.5802C51.3696 17.5118 51.242 17.5118 51.1374 17.5802L47.6585 19.8576C47.4219 20.0125 47.1193 19.7926 47.1935 19.5197L48.2844 15.5073C48.3171 15.3868 48.2777 15.2652 48.1803 15.187L44.9392 12.5823C44.7187 12.4051 44.8344 12.0492 45.1168 12.0356L49.27 11.8332C49.3949 11.8271 49.4981 11.7522 49.5425 11.6353L51.0183 7.74805C51.1181 7.48508 51.4935 7.48508 51.5932 7.74788ZM69.2063 3.62256C72.9301 3.62256 75.9489 6.64122 75.9489 10.3651C75.9489 14.0888 72.9302 17.1075 69.2063 17.1075C65.4826 17.1075 62.4639 14.0888 62.4639 10.3651C62.4639 6.64139 65.4826 3.62256 69.2063 3.62256ZM57.5188 30.6682H80.8937C81.7548 30.6682 82.384 29.8738 82.1866 29.0356C80.8009 23.1493 75.5154 18.7677 69.2062 18.7677C62.8969 18.7677 57.6115 23.1495 56.2257 29.0357C56.0287 29.8738 56.6579 30.6682 57.5188 30.6682ZM2.77734 81.3773H7.86971V74.9967C7.86971 73.6587 9.08046 72.5674 10.565 72.5674H15.9233C17.408 72.5674 18.6186 73.6587 18.6186 74.9967V81.3773H23.7111V50.6075C23.7111 49.9675 23.189 49.4454 22.549 49.4454H3.93945C3.29946 49.4454 2.77734 49.9675 2.77734 50.6075V81.3773ZM7.69954 63.1813H10.9017C11.3589 63.1813 11.7317 63.5542 11.7317 64.0114V67.2135C11.7317 67.6707 11.3589 68.0436 10.9017 68.0436H7.69954C7.24233 68.0436 6.86946 67.6707 6.86946 67.2135V64.0114C6.86946 63.5542 7.24233 63.1813 7.69954 63.1813ZM7.69954 54.0566H18.7892C19.2464 54.0566 19.6193 54.4295 19.6193 54.8867V57.9077C19.6193 58.3649 19.2464 58.7378 18.7892 58.7378H7.69954C7.24233 58.7378 6.86946 58.3649 6.86946 57.9077V54.8867C6.86946 54.4295 7.24233 54.0566 7.69954 54.0566ZM15.5869 63.1813H18.7891C19.2463 63.1813 19.6191 63.5542 19.6191 64.0114V67.2135C19.6191 67.6707 19.2463 68.0436 18.7891 68.0436H15.5869C15.1297 68.0436 14.7569 67.6707 14.7569 67.2135V64.0114C14.7569 63.5542 15.1297 63.1813 15.5869 63.1813ZM7.91652 44.99H18.5724C19.1211 44.99 19.5685 45.4374 19.5685 45.9861V46.7893H6.92043V45.9861C6.92043 45.4374 7.36784 44.99 7.91652 44.99ZM35.4759 51.9348H38.6781C39.1353 51.9348 39.5081 52.3076 39.5081 52.7648V55.9669C39.5081 56.4242 39.1353 56.797 38.6781 56.797H35.4759C35.0187 56.797 34.6459 56.4242 34.6459 55.9669V52.7648C34.646 52.3076 35.0187 51.9348 35.4759 51.9348ZM35.4759 42.8102H46.5655C47.0227 42.8102 47.3955 43.1831 47.3955 43.6403V46.6613C47.3955 47.1185 47.0227 47.4914 46.5655 47.4914H35.4759C35.0187 47.4914 34.6459 47.1185 34.6459 46.6613V43.6403C34.6459 43.1831 35.0187 42.8102 35.4759 42.8102ZM43.3635 51.9348H46.5656C47.0228 51.9348 47.3957 52.3076 47.3957 52.7648V55.9669C47.3957 56.4242 47.0228 56.797 46.5656 56.797H43.3635C42.9063 56.797 42.5334 56.4242 42.5334 55.9669V52.7648C42.5334 52.3076 42.9063 51.9348 43.3635 51.9348ZM43.3635 59.8223H46.5656C47.0228 59.8223 47.3957 60.1952 47.3957 60.6524V63.8545C47.3957 64.3117 47.0228 64.6846 46.5656 64.6846H43.3635C42.9063 64.6846 42.5334 64.3117 42.5334 63.8545V60.6524C42.5334 60.195 42.9063 59.8223 43.3635 59.8223ZM46.3686 81.3773H51.4878V39.4685C51.4878 38.8285 50.9657 38.3064 50.3257 38.3064H31.7159C31.0759 38.3064 30.5537 38.8285 30.5537 39.4685V81.3773H35.6194L35.6461 71.7833C35.6498 70.4453 36.8569 69.354 38.3414 69.354H43.6999C45.1844 69.354 46.3989 70.4453 46.3953 71.7833L46.3686 81.3773ZM35.4759 59.8223H38.6781C39.1353 59.8223 39.5081 60.1952 39.5081 60.6524V63.8545C39.5081 64.3117 39.1353 64.6846 38.6781 64.6846H35.4759C35.0187 64.6846 34.6459 64.3117 34.6459 63.8545V60.6524C34.646 60.195 35.0187 59.8223 35.4759 59.8223ZM35.5269 33.7434H46.515C46.9722 33.7434 47.3451 34.1163 47.3451 34.5735V35.6503H34.697V34.5735C34.6968 34.1163 35.0697 33.7434 35.5269 33.7434ZM79.6733 33.3244H58.7394V81.0762H63.8317V66.6622C63.8317 65.3241 65.0425 64.2329 66.5272 64.2329H71.8855C73.3702 64.2329 74.5808 65.3243 74.5808 66.6622V81.0762H79.6733V33.3244ZM71.5488 53.0945H74.7509C75.2081 53.0945 75.581 53.4674 75.581 53.9246V57.1267C75.581 57.5839 75.2081 57.9568 74.7509 57.9568H71.5488C71.0916 57.9568 70.7187 57.5839 70.7187 57.1267V53.9246C70.7189 53.4674 71.0918 53.0945 71.5488 53.0945ZM63.6614 53.0945H66.8635C67.3207 53.0945 67.6936 53.4674 67.6936 53.9246V57.1267C67.6936 57.5839 67.3207 57.9568 66.8635 57.9568H63.6614C63.2042 57.9568 62.8313 57.5839 62.8313 57.1267V53.9246C62.8313 53.4674 63.2042 53.0945 63.6614 53.0945ZM63.6614 45.2071H66.8635C67.3207 45.2071 67.6936 45.58 67.6936 46.0372V49.2393C67.6936 49.6965 67.3207 50.0694 66.8635 50.0694H63.6614C63.2042 50.0694 62.8313 49.6965 62.8313 49.2393V46.0372C62.8313 45.58 63.2042 45.2071 63.6614 45.2071ZM71.5488 45.2071H74.7509C75.2081 45.2071 75.581 45.58 75.581 46.0372V49.2393C75.581 49.6965 75.2081 50.0694 74.7509 50.0694H71.5488C71.0916 50.0694 70.7187 49.6965 70.7187 49.2393V46.0372C70.7189 45.58 71.0918 45.2071 71.5488 45.2071Z" fill="url(#paint0_linear_572_1123)"/>
<defs>
<linearGradient id="paint0_linear_572_1123" x1="42.5002" y1="3.62256" x2="42.5002" y2="81.3773" gradientUnits="userSpaceOnUse">
<stop stop-color="#E83E8C"/>
<stop offset="1" stop-color="white"/>
</linearGradient>
</defs>
</svg>
