<svg width="110" height="110" viewBox="0 0 110 110" fill="none" xmlns="http://www.w3.org/2000/svg">
<circle cx="55" cy="55" r="55" fill="#E83E8C"/>
<path d="M79.4525 33.0504H57.3281V28.5654C57.3281 27.5559 56.5095 26.7373 55.5 26.7373C54.4905 26.7373 53.6719 27.5559 53.6719 28.5654V33.0504H31.5475C29.0714 33.0504 27.0625 35.0593 27.0625 37.5354V65.8043C27.0625 68.2825 29.0714 70.2893 31.5475 70.2893H44.1209L37.6636 81.5221C37.1598 82.3976 37.4605 83.5148 38.338 84.0186C38.6264 84.1831 38.9372 84.2623 39.2459 84.2623C39.8797 84.2623 40.4952 83.9332 40.8323 83.3442L48.3378 70.2873H62.6581L70.1636 83.3442C70.5008 83.9332 71.1183 84.2623 71.75 84.2623C72.0588 84.2623 72.3736 84.1831 72.658 84.0186C73.5355 83.5148 73.8361 82.3976 73.3323 81.5221L66.875 70.2893H79.4484C81.9266 70.2893 83.9334 68.2804 83.9334 65.8043V37.5354C83.9375 35.0593 81.9286 33.0504 79.4525 33.0504ZM48.4231 54.5146H38.0922C37.0827 54.5146 36.2641 53.6961 36.2641 52.6865C36.2641 51.677 37.0827 50.8584 38.0922 50.8584H48.4231C49.4327 50.8584 50.2513 51.677 50.2513 52.6865C50.2513 53.6961 49.4327 54.5146 48.4231 54.5146ZM61.0697 44.5737H38.0922C37.0827 44.5737 36.2641 43.7551 36.2641 42.7456C36.2641 41.7361 37.0827 40.9175 38.0922 40.9175H61.0717C62.0812 40.9175 62.8998 41.7361 62.8998 42.7456C62.8998 43.7551 62.0792 44.5737 61.0697 44.5737Z" fill="white"/>
</svg>
